solid OpenSCAD_Model
  facet normal 0 0 1
    outer loop
      vertex 0.655834601050036 -3.4380053775504105 1
      vertex 0.6479420812326258 -3.439255429884441 1
      vertex 18 -1.8125 1
    endloop
  endfacet
  facet normal 0 0 1
    outer loop
      vertex 0.655834601050036 -3.4380053775504105 1
      vertex 18 -1.8125 1
      vertex 0.870414605076992 -3.3900410639502088 1
    endloop
  endfacet
  facet normal 0 0 1
    outer loop
      vertex 0.870414605076992 -3.3900410639502088 1
      vertex 18 -1.8125 1
      vertex 1.0815594803123159 -3.3286978070330373 1
    endloop
  endfacet
  facet normal 0 0 1
    outer loop
      vertex 1.0815594803123159 -3.3286978070330373 1
      vertex 18 -1.8125 1
      vertex 1.2884359343963725 -3.25421770060888 1
    endloop
  endfacet
  facet normal 0 0 1
    outer loop
      vertex 1.4902275204777544 -3.1668946836310683 1
      vertex 1.2884359343963725 -3.25421770060888 1
      vertex 18 -1.8125 1
    endloop
  endfacet
  facet normal -0.09334070869305824 0.9956342260592882 0
    outer loop
      vertex 0.6479420812326258 -3.439255429884441 1
      vertex 0.6479420812326258 -3.439255429884441 2.5
      vertex 18 -1.8125 1
    endloop
  endfacet
  facet normal 0 0 1
    outer loop
      vertex 0.6479420812326199 3.439255429884442 1
      vertex 0.6558346010500369 3.43800537755041 1
      vertex 18 1.8125 1
    endloop
  endfacet
  facet normal 0 0 1
    outer loop
      vertex 0.6558346010500369 3.43800537755041 1
      vertex 0.8704146050769905 3.390041063950209 1
      vertex 18 1.8125 1
    endloop
  endfacet
  facet normal 0 0 1
    outer loop
      vertex 1.0815594803123159 3.3286978070330373 1
      vertex 1.2884359343963743 3.2542177006088795 1
      vertex 18 1.8125 1
    endloop
  endfacet
  facet normal 0 0 1
    outer loop
      vertex 1.2884359343963743 3.2542177006088795 1
      vertex 1.4902275204777535 3.1668946836310683 1
      vertex 18 1.8125 1
    endloop
  endfacet
  facet normal 0 0 1
    outer loop
      vertex 0.8704146050769905 3.390041063950209 1
      vertex 1.0815594803123159 3.3286978070330373 1
      vertex 18 1.8125 1
    endloop
  endfacet
  facet normal -0.09334070869305827 -0.9956342260592881 0
    outer loop
      vertex 0.6479420812326199 3.439255429884442 1
      vertex 18 1.8125 2.5
      vertex 0.6479420812326199 3.439255429884442 2.5
    endloop
  endfacet
  facet normal 0 0 1
    outer loop
      vertex 1.4902275204777544 -3.1668946836310683 1
      vertex 18 -1.8125 1
      vertex 1.6861378593560032 -3.0670733801535226 1
    endloop
  endfacet
  facet normal 0 0 1
    outer loop
      vertex 1.6861378593560032 -3.0670733801535226 1
      vertex 18 -1.8125 1
      vertex 1.8753937824264884 -2.9551477392570527 1
    endloop
  endfacet
  facet normal 0 0 1
    outer loop
      vertex 2.057248383023656 -2.831559480312316 1
      vertex 1.8753937824264884 -2.9551477392570527 1
      vertex 18 -1.8125 1
    endloop
  endfacet
  facet normal 0 0 1
    outer loop
      vertex 2.057248383023656 -2.831559480312316 1
      vertex 18 -1.8125 1
      vertex 2.230983964120414 -2.696796349715262 1
    endloop
  endfacet
  facet normal 0 0 1
    outer loop
      vertex 2.3959148707504108 -2.5513901959749403 1
      vertex 2.230983964120414 -2.696796349715262 1
      vertex 18 -1.8125 1
    endloop
  endfacet
  facet normal 0 0 1
    outer loop
      vertex 2.3959148707504108 -2.5513901959749403 1
      vertex 18 -1.8125 1
      vertex 2.5513901959749403 -2.3959148707504108 1
    endloop
  endfacet
  facet normal 0 0 1
    outer loop
      vertex 2.696796349715262 -2.230983964120414 1
      vertex 2.5513901959749403 -2.3959148707504108 1
      vertex 18 -1.8125 1
    endloop
  endfacet
  facet normal 0 0 1
    outer loop
      vertex 2.831559480312316 -2.057248383023656 1
      vertex 2.696796349715262 -2.230983964120414 1
      vertex 18 -1.8125 1
    endloop
  endfacet
  facet normal 0 0 1
    outer loop
      vertex 2.9551477392570527 -1.8753937824264884 1
      vertex 2.831559480312316 -2.057248383023656 1
      vertex 18 -1.8125 1
    endloop
  endfacet
  facet normal 0 0 1
    outer loop
      vertex 3.0670733801535226 -1.6861378593560037 1
      vertex 2.9551477392570527 -1.8753937824264884 1
      vertex 18 -1.8125 1
    endloop
  endfacet
  facet normal 0 0 1
    outer loop
      vertex 3.1668946836310683 -1.4902275204777542 1
      vertex 3.0670733801535226 -1.6861378593560037 1
      vertex 18 -1.8125 1
    endloop
  endfacet
  facet normal 0 0 1
    outer loop
      vertex 3.1668946836310683 -1.4902275204777542 1
      vertex 18 -1.8125 1
      vertex 3.25421770060888 -1.288435934396373 1
    endloop
  endfacet
  facet normal 0 0 1
    outer loop
      vertex 3.3286978070330373 -1.0815594803123159 1
      vertex 3.25421770060888 -1.288435934396373 1
      vertex 18 -1.8125 1
    endloop
  endfacet
  facet normal 0 0 1
    outer loop
      vertex 3.3900410639502088 -0.8704146050769918 1
      vertex 3.3286978070330373 -1.0815594803123159 1
      vertex 18 -1.8125 1
    endloop
  endfacet
  facet normal 0 0 1
    outer loop
      vertex 3.4380053775504105 -0.6558346010500362 1
      vertex 3.3900410639502088 -0.8704146050769918 1
      vertex 18 -1.8125 1
    endloop
  endfacet
  facet normal 0 0 1
    outer loop
      vertex 3.4724014546006727 -0.4386663174750649 1
      vertex 3.4380053775504105 -0.6558346010500362 1
      vertex 18 -1.8125 1
    endloop
  endfacet
  facet normal 0 0 1
    outer loop
      vertex 3.4930935494989503 -0.21976681835259682 1
      vertex 3.4724014546006727 -0.4386663174750649 1
      vertex 18 -1.8125 1
    endloop
  endfacet
  facet normal 0 0 1
    outer loop
      vertex 3.5 0 1
      vertex 3.4930935494989503 -0.21976681835259682 1
      vertex 18 -1.8125 1
    endloop
  endfacet
  facet normal 0 0 1
    outer loop
      vertex 3.4930935494989503 0.21976681835259818 1
      vertex 3.5 0 1
      vertex 18 -1.8125 1
    endloop
  endfacet
  facet normal 0 0 1
    outer loop
      vertex 3.4724014546006727 0.43866631747506424 1
      vertex 3.4930935494989503 0.21976681835259818 1
      vertex 18 -1.8125 1
    endloop
  endfacet
  facet normal 0 0 1
    outer loop
      vertex 3.43800537755041 0.6558346010500369 1
      vertex 3.4724014546006727 0.43866631747506424 1
      vertex 18 -1.8125 1
    endloop
  endfacet
  facet normal 0 0 1
    outer loop
      vertex 3.390041063950209 0.8704146050769905 1
      vertex 3.43800537755041 0.6558346010500369 1
      vertex 18 -1.8125 1
    endloop
  endfacet
  facet normal -0.09334070869305824 0.9956342260592882 0
    outer loop
      vertex 18 -1.8125 1
      vertex 0.6479420812326258 -3.439255429884441 2.5
      vertex 18 -1.8125 2.5
    endloop
  endfacet
  facet normal -1 0 0
    outer loop
      vertex 18 1.8125 1
      vertex 18 -1.8125 1
      vertex 18 -1.8125 2.5
    endloop
  endfacet
  facet normal 0 0 1
    outer loop
      vertex 3.3286978070330373 1.0815594803123159 1
      vertex 3.390041063950209 0.8704146050769905 1
      vertex 18 -1.8125 1
    endloop
  endfacet
  facet normal 0 0 1
    outer loop
      vertex 3.2542177006088795 1.2884359343963743 1
      vertex 3.3286978070330373 1.0815594803123159 1
      vertex 18 -1.8125 1
    endloop
  endfacet
  facet normal 0 0 1
    outer loop
      vertex 3.1668946836310683 1.4902275204777535 1
      vertex 3.2542177006088795 1.2884359343963743 1
      vertex 18 -1.8125 1
    endloop
  endfacet
  facet normal 0 0 1
    outer loop
      vertex 3.067073380153522 1.686137859356004 1
      vertex 3.1668946836310683 1.4902275204777535 1
      vertex 18 -1.8125 1
    endloop
  endfacet
  facet normal 0 0 1
    outer loop
      vertex 2.9551477392570535 1.8753937824264868 1
      vertex 3.067073380153522 1.686137859356004 1
      vertex 18 -1.8125 1
    endloop
  endfacet
  facet normal 0 0 1
    outer loop
      vertex 2.831559480312316 2.057248383023656 1
      vertex 2.9551477392570535 1.8753937824264868 1
      vertex 18 -1.8125 1
    endloop
  endfacet
  facet normal 0 0 1
    outer loop
      vertex 2.6967963497152616 2.2309839641204148 1
      vertex 2.831559480312316 2.057248383023656 1
      vertex 18 -1.8125 1
    endloop
  endfacet
  facet normal 0 0 1
    outer loop
      vertex 2.39591487075041 2.5513901959749408 1
      vertex 2.5513901959749408 2.39591487075041 1
      vertex 18 -1.8125 1
    endloop
  endfacet
  facet normal 0 0 1
    outer loop
      vertex 2.5513901959749408 2.39591487075041 1
      vertex 2.6967963497152616 2.2309839641204148 1
      vertex 18 -1.8125 1
    endloop
  endfacet
  facet normal 0 0 1
    outer loop
      vertex 2.057248383023656 2.831559480312316 1
      vertex 2.2309839641204148 2.6967963497152616 1
      vertex 18 -1.8125 1
    endloop
  endfacet
  facet normal 0 0 1
    outer loop
      vertex 1.8753937824264868 2.9551477392570535 1
      vertex 2.057248383023656 2.831559480312316 1
      vertex 18 -1.8125 1
    endloop
  endfacet
  facet normal 0 0 1
    outer loop
      vertex 2.2309839641204148 2.6967963497152616 1
      vertex 2.39591487075041 2.5513901959749408 1
      vertex 18 -1.8125 1
    endloop
  endfacet
  facet normal 0 0 1
    outer loop
      vertex 1.686137859356004 3.067073380153522 1
      vertex 1.8753937824264868 2.9551477392570535 1
      vertex 18 1.8125 1
    endloop
  endfacet
  facet normal 0 0 1
    outer loop
      vertex 1.4902275204777535 3.1668946836310683 1
      vertex 1.686137859356004 3.067073380153522 1
      vertex 18 1.8125 1
    endloop
  endfacet
  facet normal 0 0 1
    outer loop
      vertex 1.8753937824264868 2.9551477392570535 1
      vertex 18 -1.8125 1
      vertex 18 1.8125 1
    endloop
  endfacet
  facet normal -0.09334070869305827 -0.9956342260592881 3.153079301424184e-17
    outer loop
      vertex 0.6479420812326199 3.439255429884442 1
      vertex 18 1.8125 1
      vertex 18 1.8125 2.5
    endloop
  endfacet
  facet normal -1 0 0
    outer loop
      vertex 18 1.8125 1
      vertex 18 -1.8125 2.5
      vertex 18 1.8125 2.5
    endloop
  endfacet
  facet normal 0.4539904997395471 0.8910065241883677 0
    outer loop
      vertex -1.6861378593560032 -3.0670733801535226 0.625
      vertex -1.6861378593560032 -3.0670733801535226 2.5
      vertex -1.4902275204777544 -3.1668946836310683 0.625
    endloop
  endfacet
  facet normal 0.39714789063478007 0.9177546256839815 0
    outer loop
      vertex -1.4902275204777544 -3.1668946836310683 0.625
      vertex -1.4902275204777544 -3.1668946836310683 2.5
      vertex -1.2884359343963725 -3.25421770060888 0.625
    endloop
  endfacet
  facet normal 0.3387379202452908 0.9408807689542256 0
    outer loop
      vertex -1.2884359343963725 -3.25421770060888 0.625
      vertex -1.2884359343963725 -3.25421770060888 2.5
      vertex -1.0815594803123159 -3.3286978070330373 0.625
    endloop
  endfacet
  facet normal 0.21814324139654315 0.9759167619387473 0
    outer loop
      vertex -0.870414605076992 -3.3900410639502088 0.625
      vertex -0.870414605076992 -3.3900410639502088 2.5
      vertex -0.655834601050036 -3.4380053775504105 0.625
    endloop
  endfacet
  facet normal 0.15643446504023217 0.9876883405951374 0
    outer loop
      vertex -0.655834601050036 -3.4380053775504105 0.625
      vertex -0.655834601050036 -3.4380053775504105 2.5
      vertex -0.438666317475065 -3.4724014546006727 0.625
    endloop
  endfacet
  facet normal 0.0941083133185121 0.9955619646030802 0
    outer loop
      vertex -0.438666317475065 -3.4724014546006727 0.625
      vertex -0.438666317475065 -3.4724014546006727 2.5
      vertex -0.21976681835259648 -3.4930935494989503 0.625
    endloop
  endfacet
  facet normal 0.03141075907812889 0.9995065603657315 0
    outer loop
      vertex -0.21976681835259648 -3.4930935494989503 0.625
      vertex -0.21976681835259648 -3.4930935494989503 2.5
      vertex 0 -3.5 0.625
    endloop
  endfacet
  facet normal 0.27899110603922983 0.9602936856769428 0
    outer loop
      vertex -1.0815594803123159 -3.3286978070330373 0.625
      vertex -1.0815594803123159 -3.3286978070330373 2.5
      vertex -0.870414605076992 -3.3900410639502088 0.625
    endloop
  endfacet
  facet normal 0.5090414157503725 0.860742027003943 0
    outer loop
      vertex -1.6861378593560032 -3.0670733801535226 0.625
      vertex -1.8753937824264884 -2.955147739257052 2.5
      vertex -1.6861378593560032 -3.0670733801535226 2.5
    endloop
  endfacet
  facet normal 0.4539904997395471 0.8910065241883677 0
    outer loop
      vertex -1.4902275204777544 -3.1668946836310683 0.625
      vertex -1.6861378593560032 -3.0670733801535226 2.5
      vertex -1.4902275204777544 -3.1668946836310683 2.5
    endloop
  endfacet
  facet normal 0.39714789063478007 0.9177546256839815 0
    outer loop
      vertex -1.2884359343963725 -3.25421770060888 0.625
      vertex -1.4902275204777544 -3.1668946836310683 2.5
      vertex -1.2884359343963725 -3.25421770060888 2.5
    endloop
  endfacet
  facet normal 0.3387379202452908 0.9408807689542256 0
    outer loop
      vertex -1.0815594803123159 -3.3286978070330373 0.625
      vertex -1.2884359343963725 -3.25421770060888 2.5
      vertex -1.0815594803123159 -3.3286978070330373 2.5
    endloop
  endfacet
  facet normal 0.21814324139654315 0.9759167619387473 0
    outer loop
      vertex -0.655834601050036 -3.4380053775504105 0.625
      vertex -0.870414605076992 -3.3900410639502088 2.5
      vertex -0.655834601050036 -3.4380053775504105 2.5
    endloop
  endfacet
  facet normal 0.15643446504023217 0.9876883405951374 0
    outer loop
      vertex -0.438666317475065 -3.4724014546006727 0.625
      vertex -0.655834601050036 -3.4380053775504105 2.5
      vertex -0.438666317475065 -3.4724014546006727 2.5
    endloop
  endfacet
  facet normal 0.0941083133185121 0.9955619646030802 0
    outer loop
      vertex -0.21976681835259648 -3.4930935494989503 0.625
      vertex -0.438666317475065 -3.4724014546006727 2.5
      vertex -0.21976681835259648 -3.4930935494989503 2.5
    endloop
  endfacet
  facet normal 0.27899110603922983 0.9602936856769428 0
    outer loop
      vertex -0.870414605076992 -3.3900410639502088 0.625
      vertex -1.0815594803123159 -3.3286978070330373 2.5
      vertex -0.870414605076992 -3.3900410639502088 2.5
    endloop
  endfacet
  facet normal 0 0 1
    outer loop
      vertex -2.39591487075041 2.5513901959749408 0.625
      vertex -2.5513901959749408 -2.39591487075041 0.625
      vertex -2.39591487075041 -2.5513901959749408 0.625
    endloop
  endfacet
  facet normal 0 0 1
    outer loop
      vertex -1.8753937824264884 2.955147739257052 0.625
      vertex -2.057248383023656 -2.831559480312316 0.625
      vertex -1.8753937824264884 -2.955147739257052 0.625
    endloop
  endfacet
  facet normal 0 0 1
    outer loop
      vertex -2.230983964120414 2.696796349715263 0.625
      vertex -2.39591487075041 -2.5513901959749408 0.625
      vertex -2.230983964120414 -2.696796349715263 0.625
    endloop
  endfacet
  facet normal 0 0 1
    outer loop
      vertex -2.057248383023656 2.831559480312316 0.625
      vertex -2.230983964120414 -2.696796349715263 0.625
      vertex -2.057248383023656 -2.831559480312316 0.625
    endloop
  endfacet
  facet normal 0 0 1
    outer loop
      vertex -2.831559480312316 2.057248383023656 0.625
      vertex -2.955147739257052 -1.8753937824264884 0.625
      vertex -2.831559480312316 -2.057248383023656 0.625
    endloop
  endfacet
  facet normal 0 0 1
    outer loop
      vertex -3.067073380153522 1.686137859356004 0.625
      vertex -3.1668946836310683 -1.4902275204777535 0.625
      vertex -3.067073380153522 -1.686137859356004 0.625
    endloop
  endfacet
  facet normal 0 0 1
    outer loop
      vertex -3.1668946836310683 1.4902275204777535 0.625
      vertex -3.25421770060888 -1.2884359343963725 0.625
      vertex -3.1668946836310683 -1.4902275204777535 0.625
    endloop
  endfacet
  facet normal 0 0 1
    outer loop
      vertex -2.955147739257052 1.8753937824264884 0.625
      vertex -3.067073380153522 -1.686137859356004 0.625
      vertex -2.955147739257052 -1.8753937824264884 0.625
    endloop
  endfacet
  facet normal 0 0 1
    outer loop
      vertex -3.25421770060888 1.2884359343963725 0.625
      vertex -3.3286978070330373 -1.0815594803123159 0.625
      vertex -3.25421770060888 -1.2884359343963725 0.625
    endloop
  endfacet
  facet normal 0 0 1
    outer loop
      vertex -3.3286978070330373 1.0815594803123159 0.625
      vertex -3.3900410639502088 -0.870414605076992 0.625
      vertex -3.3286978070330373 -1.0815594803123159 0.625
    endloop
  endfacet
  facet normal 0 0 1
    outer loop
      vertex -3.3900410639502088 0.870414605076992 0.625
      vertex -3.43800537755041 -0.6558346010500369 0.625
      vertex -3.3900410639502088 -0.870414605076992 0.625
    endloop
  endfacet
  facet normal 0 0 1
    outer loop
      vertex -3.4724014546006727 0.43866631747506424 0.625
      vertex -3.4930935494989503 -0.21976681835259648 0.625
      vertex -3.4724014546006727 -0.43866631747506424 0.625
    endloop
  endfacet
  facet normal 0 0 1
    outer loop
      vertex -3.43800537755041 0.6558346010500369 0.625
      vertex -3.4724014546006727 -0.43866631747506424 0.625
      vertex -3.43800537755041 -0.6558346010500369 0.625
    endloop
  endfacet
  facet normal 0 0 1
    outer loop
      vertex -2.696796349715263 2.230983964120414 0.625
      vertex -2.831559480312316 -2.057248383023656 0.625
      vertex -2.696796349715263 -2.230983964120414 0.625
    endloop
  endfacet
  facet normal 0 0 1
    outer loop
      vertex -2.5513901959749408 2.39591487075041 0.625
      vertex -2.696796349715263 -2.230983964120414 0.625
      vertex -2.5513901959749408 -2.39591487075041 0.625
    endloop
  endfacet
  facet normal 0 0 1
    outer loop
      vertex -1.686137859356004 3.067073380153522 0.625
      vertex -1.8753937824264884 -2.955147739257052 0.625
      vertex -1.6861378593560032 -3.0670733801535226 0.625
    endloop
  endfacet
  facet normal 0 0 1
    outer loop
      vertex -1.4902275204777535 3.1668946836310683 0.625
      vertex -1.6861378593560032 -3.0670733801535226 0.625
      vertex -1.4902275204777544 -3.1668946836310683 0.625
    endloop
  endfacet
  facet normal 0 0 1
    outer loop
      vertex -1.2884359343963725 3.25421770060888 0.625
      vertex -1.4902275204777544 -3.1668946836310683 0.625
      vertex -1.2884359343963725 -3.25421770060888 0.625
    endloop
  endfacet
  facet normal 0 0 1
    outer loop
      vertex -1.0815594803123159 3.3286978070330373 0.625
      vertex -1.2884359343963725 -3.25421770060888 0.625
      vertex -1.0815594803123159 -3.3286978070330373 0.625
    endloop
  endfacet
  facet normal 0 0 1
    outer loop
      vertex -0.6558346010500369 3.43800537755041 0.625
      vertex -0.870414605076992 -3.3900410639502088 0.625
      vertex -0.655834601050036 -3.4380053775504105 0.625
    endloop
  endfacet
  facet normal 0 0 1
    outer loop
      vertex -0.43866631747506424 3.4724014546006727 0.625
      vertex -0.655834601050036 -3.4380053775504105 0.625
      vertex -0.438666317475065 -3.4724014546006727 0.625
    endloop
  endfacet
  facet normal 0 0 1
    outer loop
      vertex -0.21976681835259818 3.4930935494989503 0.625
      vertex -0.438666317475065 -3.4724014546006727 0.625
      vertex -0.21976681835259648 -3.4930935494989503 0.625
    endloop
  endfacet
  facet normal 0 0 1
    outer loop
      vertex -0.870414605076992 3.3900410639502088 0.625
      vertex -1.0815594803123159 -3.3286978070330373 0.625
      vertex -0.870414605076992 -3.3900410639502088 0.625
    endloop
  endfacet
  facet normal 0.5620833778521291 0.8270805742745629 0
    outer loop
      vertex -2.057248383023656 -2.831559480312316 0.625
      vertex -2.057248383023656 -2.831559480312316 2.5
      vertex -1.8753937824264884 -2.955147739257052 0.625
    endloop
  endfacet
  facet normal 0.6129070536529749 0.7901550123756914 0
    outer loop
      vertex -2.230983964120414 -2.696796349715263 0.625
      vertex -2.230983964120414 -2.696796349715263 2.5
      vertex -2.057248383023656 -2.831559480312316 0.625
    endloop
  endfacet
  facet normal 0.7071067811865475 0.7071067811865475 0
    outer loop
      vertex -2.5513901959749408 -2.39591487075041 0.625
      vertex -2.5513901959749408 -2.39591487075041 2.5
      vertex -2.39591487075041 -2.5513901959749408 0.625
    endloop
  endfacet
  facet normal 0.7501110696304583 0.6613118653236533 0
    outer loop
      vertex -2.696796349715263 -2.230983964120414 0.625
      vertex -2.696796349715263 -2.230983964120414 2.5
      vertex -2.5513901959749408 -2.39591487075041 0.625
    endloop
  endfacet
  facet normal 0.6613118653236533 0.7501110696304583 0
    outer loop
      vertex -2.39591487075041 -2.5513901959749408 0.625
      vertex -2.39591487075041 -2.5513901959749408 2.5
      vertex -2.230983964120414 -2.696796349715263 0.625
    endloop
  endfacet
  facet normal 0.8270805742745629 0.5620833778521291 0
    outer loop
      vertex -2.955147739257052 -1.8753937824264884 0.625
      vertex -2.955147739257052 -1.8753937824264884 2.5
      vertex -2.831559480312316 -2.057248383023656 0.625
    endloop
  endfacet
  facet normal 0.860742027003943 0.5090414157503723 0
    outer loop
      vertex -3.067073380153522 -1.686137859356004 0.625
      vertex -3.067073380153522 -1.686137859356004 2.5
      vertex -2.955147739257052 -1.8753937824264884 0.625
    endloop
  endfacet
  facet normal 0.8910065241883683 0.45399049973954586 0
    outer loop
      vertex -3.1668946836310683 -1.4902275204777535 0.625
      vertex -3.1668946836310683 -1.4902275204777535 2.5
      vertex -3.067073380153522 -1.686137859356004 0.625
    endloop
  endfacet
  facet normal 0.7901550123756914 0.6129070536529749 0
    outer loop
      vertex -2.831559480312316 -2.057248383023656 0.625
      vertex -2.831559480312316 -2.057248383023656 2.5
      vertex -2.696796349715263 -2.230983964120414 0.625
    endloop
  endfacet
  facet normal 0.5090414157503725 0.860742027003943 0
    outer loop
      vertex -1.8753937824264884 -2.955147739257052 0.625
      vertex -1.8753937824264884 -2.955147739257052 2.5
      vertex -1.6861378593560032 -3.0670733801535226 0.625
    endloop
  endfacet
  facet normal 0.5620833778521291 0.8270805742745629 0
    outer loop
      vertex -1.8753937824264884 -2.955147739257052 0.625
      vertex -2.057248383023656 -2.831559480312316 2.5
      vertex -1.8753937824264884 -2.955147739257052 2.5
    endloop
  endfacet
  facet normal 0.6613118653236533 0.7501110696304583 0
    outer loop
      vertex -2.230983964120414 -2.696796349715263 0.625
      vertex -2.39591487075041 -2.5513901959749408 2.5
      vertex -2.230983964120414 -2.696796349715263 2.5
    endloop
  endfacet
  facet normal 0.6129070536529749 0.7901550123756914 0
    outer loop
      vertex -2.057248383023656 -2.831559480312316 0.625
      vertex -2.230983964120414 -2.696796349715263 2.5
      vertex -2.057248383023656 -2.831559480312316 2.5
    endloop
  endfacet
  facet normal 0.7071067811865475 0.7071067811865475 0
    outer loop
      vertex -2.39591487075041 -2.5513901959749408 0.625
      vertex -2.5513901959749408 -2.39591487075041 2.5
      vertex -2.39591487075041 -2.5513901959749408 2.5
    endloop
  endfacet
  facet normal 0.7501110696304583 0.6613118653236533 0
    outer loop
      vertex -2.5513901959749408 -2.39591487075041 0.625
      vertex -2.696796349715263 -2.230983964120414 2.5
      vertex -2.5513901959749408 -2.39591487075041 2.5
    endloop
  endfacet
  facet normal 0.8270805742745629 0.5620833778521291 0
    outer loop
      vertex -2.831559480312316 -2.057248383023656 0.625
      vertex -2.955147739257052 -1.8753937824264884 2.5
      vertex -2.831559480312316 -2.057248383023656 2.5
    endloop
  endfacet
  facet normal 0.860742027003943 0.5090414157503723 0
    outer loop
      vertex -2.955147739257052 -1.8753937824264884 0.625
      vertex -3.067073380153522 -1.686137859356004 2.5
      vertex -2.955147739257052 -1.8753937824264884 2.5
    endloop
  endfacet
  facet normal 0.8910065241883683 0.45399049973954586 0
    outer loop
      vertex -3.067073380153522 -1.686137859356004 0.625
      vertex -3.1668946836310683 -1.4902275204777535 2.5
      vertex -3.067073380153522 -1.686137859356004 2.5
    endloop
  endfacet
  facet normal 0.7901550123756914 0.6129070536529749 0
    outer loop
      vertex -2.696796349715263 -2.230983964120414 0.625
      vertex -2.831559480312316 -2.057248383023656 2.5
      vertex -2.696796349715263 -2.230983964120414 2.5
    endloop
  endfacet
  facet normal 0.9408807689542256 0.3387379202452908 0
    outer loop
      vertex -3.3286978070330373 -1.0815594803123159 0.625
      vertex -3.3286978070330373 -1.0815594803123159 2.5
      vertex -3.25421770060888 -1.2884359343963725 0.625
    endloop
  endfacet
  facet normal 0.9177546256839807 0.3971478906347815 0
    outer loop
      vertex -3.25421770060888 -1.2884359343963725 0.625
      vertex -3.25421770060888 -1.2884359343963725 2.5
      vertex -3.1668946836310683 -1.4902275204777535 0.625
    endloop
  endfacet
  facet normal 0.9602936856769428 0.27899110603922983 0
    outer loop
      vertex -3.3900410639502088 -0.870414605076992 0.625
      vertex -3.3900410639502088 -0.870414605076992 2.5
      vertex -3.3286978070330373 -1.0815594803123159 0.625
    endloop
  endfacet
  facet normal 0.9759167619387474 0.21814324139654206 0
    outer loop
      vertex -3.43800537755041 -0.6558346010500369 0.625
      vertex -3.43800537755041 -0.6558346010500369 2.5
      vertex -3.3900410639502088 -0.870414605076992 0.625
    endloop
  endfacet
  facet normal 0.9876883405951374 0.15643446504023298 0
    outer loop
      vertex -3.4724014546006727 -0.43866631747506424 0.625
      vertex -3.4724014546006727 -0.43866631747506424 2.5
      vertex -3.43800537755041 -0.6558346010500369 0.625
    endloop
  endfacet
  facet normal 0.9955619646030802 0.09410831331851244 0
    outer loop
      vertex -3.4930935494989503 -0.21976681835259648 0.625
      vertex -3.4930935494989503 -0.21976681835259648 2.5
      vertex -3.4724014546006727 -0.43866631747506424 0.625
    endloop
  endfacet
  facet normal 0.9995065603657315 0.03141075907812889 0
    outer loop
      vertex -3.5 0 0.625
      vertex -3.5 0 2.5
      vertex -3.4930935494989503 -0.21976681835259648 0.625
    endloop
  endfacet
  facet normal 0.9408807689542256 0.3387379202452908 0
    outer loop
      vertex -3.25421770060888 -1.2884359343963725 0.625
      vertex -3.3286978070330373 -1.0815594803123159 2.5
      vertex -3.25421770060888 -1.2884359343963725 2.5
    endloop
  endfacet
  facet normal 0.9177546256839807 0.3971478906347815 0
    outer loop
      vertex -3.1668946836310683 -1.4902275204777535 0.625
      vertex -3.25421770060888 -1.2884359343963725 2.5
      vertex -3.1668946836310683 -1.4902275204777535 2.5
    endloop
  endfacet
  facet normal 0.9602936856769428 0.27899110603922983 0
    outer loop
      vertex -3.3286978070330373 -1.0815594803123159 0.625
      vertex -3.3900410639502088 -0.870414605076992 2.5
      vertex -3.3286978070330373 -1.0815594803123159 2.5
    endloop
  endfacet
  facet normal 0.9759167619387474 0.21814324139654206 0
    outer loop
      vertex -3.3900410639502088 -0.870414605076992 0.625
      vertex -3.43800537755041 -0.6558346010500369 2.5
      vertex -3.3900410639502088 -0.870414605076992 2.5
    endloop
  endfacet
  facet normal 0.9876883405951374 0.15643446504023298 0
    outer loop
      vertex -3.43800537755041 -0.6558346010500369 0.625
      vertex -3.4724014546006727 -0.43866631747506424 2.5
      vertex -3.43800537755041 -0.6558346010500369 2.5
    endloop
  endfacet
  facet normal 0.9955619646030802 0.09410831331851244 0
    outer loop
      vertex -3.4724014546006727 -0.43866631747506424 0.625
      vertex -3.4930935494989503 -0.21976681835259648 2.5
      vertex -3.4724014546006727 -0.43866631747506424 2.5
    endloop
  endfacet
  facet normal 0.9995065603657315 0.03141075907812889 0
    outer loop
      vertex -3.4930935494989503 -0.21976681835259648 0.625
      vertex -3.5 0 2.5
      vertex -3.4930935494989503 -0.21976681835259648 2.5
    endloop
  endfacet
  facet normal -0.15643446504023217 0.9876883405951374 -5.401128828457838e-16
    outer loop
      vertex 0.438666317475065 -3.4724014546006727 0.625
      vertex 0.6479420812326258 -3.439255429884441 1
      vertex 0.655834601050036 -3.4380053775504105 0.625
    endloop
  endfacet
  facet normal -0.15643446504020722 0.9876883405951415 0
    outer loop
      vertex 0.655834601050036 -3.4380053775504105 1
      vertex 0.655834601050036 -3.4380053775504105 0.625
      vertex 0.6479420812326258 -3.439255429884441 1
    endloop
  endfacet
  facet normal -0.21814324139654317 0.9759167619387473 0
    outer loop
      vertex 0.655834601050036 -3.4380053775504105 1
      vertex 0.870414605076992 -3.3900410639502088 1
      vertex 0.655834601050036 -3.4380053775504105 0.625
    endloop
  endfacet
  facet normal -0.21814324139654317 0.9759167619387473 0
    outer loop
      vertex 0.870414605076992 -3.3900410639502088 1
      vertex 0.870414605076992 -3.3900410639502088 0.625
      vertex 0.655834601050036 -3.4380053775504105 0.625
    endloop
  endfacet
  facet normal -0.27899110603922983 0.9602936856769428 0
    outer loop
      vertex 1.0815594803123159 -3.3286978070330373 1
      vertex 1.0815594803123159 -3.3286978070330373 0.625
      vertex 0.870414605076992 -3.3900410639502088 0.625
    endloop
  endfacet
  facet normal -0.33873792024529087 0.9408807689542257 0
    outer loop
      vertex 1.2884359343963725 -3.25421770060888 1
      vertex 1.2884359343963725 -3.25421770060888 0.625
      vertex 1.0815594803123159 -3.3286978070330373 0.625
    endloop
  endfacet
  facet normal -0.39714789063478007 0.9177546256839814 0
    outer loop
      vertex 1.4902275204777544 -3.1668946836310683 1
      vertex 1.4902275204777544 -3.1668946836310683 0.625
      vertex 1.2884359343963725 -3.25421770060888 0.625
    endloop
  endfacet
  facet normal -0.45399049973954714 0.8910065241883678 0
    outer loop
      vertex 1.6861378593560032 -3.0670733801535226 1
      vertex 1.6861378593560032 -3.0670733801535226 0.625
      vertex 1.4902275204777544 -3.1668946836310683 0.625
    endloop
  endfacet
  facet normal -0.27899110603922983 0.9602936856769428 0
    outer loop
      vertex 0.870414605076992 -3.3900410639502088 1
      vertex 1.0815594803123159 -3.3286978070330373 1
      vertex 0.870414605076992 -3.3900410639502088 0.625
    endloop
  endfacet
  facet normal -0.33873792024529087 0.9408807689542257 0
    outer loop
      vertex 1.0815594803123159 -3.3286978070330373 1
      vertex 1.2884359343963725 -3.25421770060888 1
      vertex 1.0815594803123159 -3.3286978070330373 0.625
    endloop
  endfacet
  facet normal -0.39714789063478007 0.9177546256839814 -7.927123354075279e-18
    outer loop
      vertex 1.4902275204777544 -3.1668946836310683 1
      vertex 1.2884359343963725 -3.25421770060888 0.625
      vertex 1.2884359343963725 -3.25421770060888 1
    endloop
  endfacet
  facet normal -0.45399049973954714 0.8910065241883678 0
    outer loop
      vertex 1.4902275204777544 -3.1668946836310683 1
      vertex 1.6861378593560032 -3.0670733801535226 1
      vertex 1.4902275204777544 -3.1668946836310683 0.625
    endloop
  endfacet
  facet normal -0.5090414157503711 0.8607420270039438 0
    outer loop
      vertex 1.6861378593560032 -3.0670733801535226 1
      vertex 1.8753937824264884 -2.9551477392570527 1
      vertex 1.6861378593560032 -3.0670733801535226 0.625
    endloop
  endfacet
  facet normal -0.03141075907812889 0.9995065603657315 0
    outer loop
      vertex 0 -3.5 0.625
      vertex 0 -3.5 2.5
      vertex 0.21976681835259648 -3.4930935494989503 0.625
    endloop
  endfacet
  facet normal -0.0941083133185121 0.9955619646030802 0
    outer loop
      vertex 0.21976681835259648 -3.4930935494989503 0.625
      vertex 0.21976681835259648 -3.4930935494989503 2.5
      vertex 0.438666317475065 -3.4724014546006727 0.625
    endloop
  endfacet
  facet normal -0.15643446504023314 0.9876883405951374 0
    outer loop
      vertex 0.438666317475065 -3.4724014546006727 0.625
      vertex 0.438666317475065 -3.4724014546006727 2.5
      vertex 0.6479420812326258 -3.439255429884441 1
    endloop
  endfacet
  facet normal 0.03141075907812889 0.9995065603657315 0
    outer loop
      vertex 0 -3.5 0.625
      vertex -0.21976681835259648 -3.4930935494989503 2.5
      vertex 0 -3.5 2.5
    endloop
  endfacet
  facet normal -0.03141075907812889 0.9995065603657315 0
    outer loop
      vertex 0.21976681835259648 -3.4930935494989503 0.625
      vertex 0 -3.5 2.5
      vertex 0.21976681835259648 -3.4930935494989503 2.5
    endloop
  endfacet
  facet normal -0.0941083133185121 0.9955619646030802 0
    outer loop
      vertex 0.438666317475065 -3.4724014546006727 0.625
      vertex 0.21976681835259648 -3.4930935494989503 2.5
      vertex 0.438666317475065 -3.4724014546006727 2.5
    endloop
  endfacet
  facet normal -0.15643446504023314 0.9876883405951374 0
    outer loop
      vertex 0.6479420812326258 -3.439255429884441 1
      vertex 0.438666317475065 -3.4724014546006727 2.5
      vertex 0.6479420812326258 -3.439255429884441 2.5
    endloop
  endfacet
  facet normal -0.5090414157503711 0.8607420270039438 5.345915991972461e-18
    outer loop
      vertex 1.6861378593560032 -3.0670733801535226 0.625
      vertex 1.8753937824264884 -2.9551477392570527 1
      vertex 1.8753937824264884 -2.9551477392570527 0.625
    endloop
  endfacet
  facet normal -0.5620833778521305 0.8270805742745618 0
    outer loop
      vertex 2.057248383023656 -2.831559480312316 1
      vertex 2.057248383023656 -2.831559480312316 0.625
      vertex 1.8753937824264884 -2.9551477392570527 0.625
    endloop
  endfacet
  facet normal -0.6129070536529775 0.7901550123756895 0
    outer loop
      vertex 2.230983964120414 -2.696796349715262 1
      vertex 2.230983964120414 -2.696796349715262 0.625
      vertex 2.057248383023656 -2.831559480312316 0.625
    endloop
  endfacet
  facet normal -0.5620833778521305 0.8270805742745618 -1.907997400225186e-17
    outer loop
      vertex 2.057248383023656 -2.831559480312316 1
      vertex 1.8753937824264884 -2.9551477392570527 0.625
      vertex 1.8753937824264884 -2.9551477392570527 1
    endloop
  endfacet
  facet normal -0.6129070536529775 0.7901550123756895 0
    outer loop
      vertex 2.057248383023656 -2.831559480312316 1
      vertex 2.230983964120414 -2.696796349715262 1
      vertex 2.057248383023656 -2.831559480312316 0.625
    endloop
  endfacet
  facet normal -0.6613118653236502 0.7501110696304611 -2.094225318615717e-17
    outer loop
      vertex 2.3959148707504108 -2.5513901959749403 1
      vertex 2.230983964120414 -2.696796349715262 0.625
      vertex 2.230983964120414 -2.696796349715262 1
    endloop
  endfacet
  facet normal -0.6613118653236502 0.7501110696304611 0
    outer loop
      vertex 2.3959148707504108 -2.5513901959749403 1
      vertex 2.3959148707504108 -2.5513901959749403 0.625
      vertex 2.230983964120414 -2.696796349715262 0.625
    endloop
  endfacet
  facet normal -0.7071067811865476 0.7071067811865476 0
    outer loop
      vertex 2.5513901959749403 -2.3959148707504108 1
      vertex 2.5513901959749403 -2.3959148707504108 0.625
      vertex 2.3959148707504108 -2.5513901959749403 0.625
    endloop
  endfacet
  facet normal -0.7071067811865476 0.7071067811865476 0
    outer loop
      vertex 2.3959148707504108 -2.5513901959749403 1
      vertex 2.5513901959749403 -2.3959148707504108 1
      vertex 2.3959148707504108 -2.5513901959749403 0.625
    endloop
  endfacet
  facet normal -0.7501110696304611 0.6613118653236502 0
    outer loop
      vertex 2.696796349715262 -2.230983964120414 1
      vertex 2.696796349715262 -2.230983964120414 0.625
      vertex 2.5513901959749403 -2.3959148707504108 0.625
    endloop
  endfacet
  facet normal -0.7501110696304611 0.6613118653236502 -2.094225318615717e-17
    outer loop
      vertex 2.696796349715262 -2.230983964120414 1
      vertex 2.5513901959749403 -2.3959148707504108 0.625
      vertex 2.5513901959749403 -2.3959148707504108 1
    endloop
  endfacet
  facet normal -0.7901550123756895 0.6129070536529775 0
    outer loop
      vertex 2.831559480312316 -2.057248383023656 1
      vertex 2.831559480312316 -2.057248383023656 0.625
      vertex 2.696796349715262 -2.230983964120414 0.625
    endloop
  endfacet
  facet normal -0.8270805742745618 0.5620833778521305 0
    outer loop
      vertex 2.9551477392570527 -1.8753937824264884 1
      vertex 2.9551477392570527 -1.8753937824264884 0.625
      vertex 2.831559480312316 -2.057248383023656 0.625
    endloop
  endfacet
  facet normal -0.7901550123756895 0.6129070536529775 -1.1061095199928963e-17
    outer loop
      vertex 2.831559480312316 -2.057248383023656 1
      vertex 2.696796349715262 -2.230983964120414 0.625
      vertex 2.696796349715262 -2.230983964120414 1
    endloop
  endfacet
  facet normal -0.8270805742745618 0.5620833778521305 -1.907997400225186e-17
    outer loop
      vertex 2.9551477392570527 -1.8753937824264884 1
      vertex 2.831559480312316 -2.057248383023656 0.625
      vertex 2.831559480312316 -2.057248383023656 1
    endloop
  endfacet
  facet normal -0.8607420270039432 0.5090414157503719 0
    outer loop
      vertex 3.0670733801535226 -1.6861378593560037 1
      vertex 3.0670733801535226 -1.6861378593560037 0.625
      vertex 2.9551477392570527 -1.8753937824264884 0.625
    endloop
  endfacet
  facet normal -0.8910065241883683 0.4539904997395459 0
    outer loop
      vertex 3.1668946836310683 -1.4902275204777542 1
      vertex 3.1668946836310683 -1.4902275204777542 0.625
      vertex 3.0670733801535226 -1.6861378593560037 0.625
    endloop
  endfacet
  facet normal -0.8607420270039432 0.5090414157503719 -8.391713540600386e-18
    outer loop
      vertex 3.0670733801535226 -1.6861378593560037 1
      vertex 2.9551477392570527 -1.8753937824264884 0.625
      vertex 2.9551477392570527 -1.8753937824264884 1
    endloop
  endfacet
  facet normal -0.8910065241883683 0.4539904997395459 1.36645339383734e-17
    outer loop
      vertex 3.1668946836310683 -1.4902275204777542 1
      vertex 3.0670733801535226 -1.6861378593560037 0.625
      vertex 3.0670733801535226 -1.6861378593560037 1
    endloop
  endfacet
  facet normal 0 0 1
    outer loop
      vertex 0 3.5 0.625
      vertex -0.21976681835259648 -3.4930935494989503 0.625
      vertex 0 -3.5 0.625
    endloop
  endfacet
  facet normal 0 0 1
    outer loop
      vertex 0.21976681835259818 3.4930935494989503 0.625
      vertex 0 -3.5 0.625
      vertex 0.21976681835259648 -3.4930935494989503 0.625
    endloop
  endfacet
  facet normal 0 0 1
    outer loop
      vertex 0.43866631747506424 3.4724014546006727 0.625
      vertex 0.21976681835259648 -3.4930935494989503 0.625
      vertex 0.438666317475065 -3.4724014546006727 0.625
    endloop
  endfacet
  facet normal 0 0 1
    outer loop
      vertex 0.6558346010500369 3.43800537755041 0.625
      vertex 0.438666317475065 -3.4724014546006727 0.625
      vertex 0.655834601050036 -3.4380053775504105 0.625
    endloop
  endfacet
  facet normal 0 0 1
    outer loop
      vertex 0.8704146050769905 3.390041063950209 0.625
      vertex 0.655834601050036 -3.4380053775504105 0.625
      vertex 0.870414605076992 -3.3900410639502088 0.625
    endloop
  endfacet
  facet normal 0 0 1
    outer loop
      vertex 1.0815594803123159 3.3286978070330373 0.625
      vertex 0.870414605076992 -3.3900410639502088 0.625
      vertex 1.0815594803123159 -3.3286978070330373 0.625
    endloop
  endfacet
  facet normal 0 0 1
    outer loop
      vertex 1.2884359343963743 3.2542177006088795 0.625
      vertex 1.0815594803123159 -3.3286978070330373 0.625
      vertex 1.2884359343963725 -3.25421770060888 0.625
    endloop
  endfacet
  facet normal 0 0 1
    outer loop
      vertex 1.4902275204777535 3.1668946836310683 0.625
      vertex 1.2884359343963725 -3.25421770060888 0.625
      vertex 1.4902275204777544 -3.1668946836310683 0.625
    endloop
  endfacet
  facet normal 0 0 1
    outer loop
      vertex 1.686137859356004 3.067073380153522 0.625
      vertex 1.4902275204777544 -3.1668946836310683 0.625
      vertex 1.6861378593560032 -3.0670733801535226 0.625
    endloop
  endfacet
  facet normal 0 0 1
    outer loop
      vertex 1.8753937824264868 2.9551477392570535 0.625
      vertex 1.6861378593560032 -3.0670733801535226 0.625
      vertex 1.8753937824264884 -2.9551477392570527 0.625
    endloop
  endfacet
  facet normal 0 0 1
    outer loop
      vertex 2.057248383023656 2.831559480312316 0.625
      vertex 1.8753937824264884 -2.9551477392570527 0.625
      vertex 2.057248383023656 -2.831559480312316 0.625
    endloop
  endfacet
  facet normal 0 0 1
    outer loop
      vertex 2.2309839641204148 2.6967963497152616 0.625
      vertex 2.057248383023656 -2.831559480312316 0.625
      vertex 2.230983964120414 -2.696796349715262 0.625
    endloop
  endfacet
  facet normal 0 0 1
    outer loop
      vertex 2.39591487075041 2.5513901959749408 0.625
      vertex 2.230983964120414 -2.696796349715262 0.625
      vertex 2.3959148707504108 -2.5513901959749403 0.625
    endloop
  endfacet
  facet normal 0 0 1
    outer loop
      vertex 2.5513901959749408 2.39591487075041 0.625
      vertex 2.3959148707504108 -2.5513901959749403 0.625
      vertex 2.5513901959749403 -2.3959148707504108 0.625
    endloop
  endfacet
  facet normal -0.9177546256839809 0.3971478906347812 1.9182598074540394e-18
    outer loop
      vertex 3.1668946836310683 -1.4902275204777542 0.625
      vertex 3.25421770060888 -1.288435934396373 1
      vertex 3.25421770060888 -1.288435934396373 0.625
    endloop
  endfacet
  facet normal -0.9408807689542259 0.33873792024529015 0
    outer loop
      vertex 3.3286978070330373 -1.0815594803123159 1
      vertex 3.3286978070330373 -1.0815594803123159 0.625
      vertex 3.25421770060888 -1.288435934396373 0.625
    endloop
  endfacet
  facet normal -0.9177546256839809 0.3971478906347812 0
    outer loop
      vertex 3.1668946836310683 -1.4902275204777542 1
      vertex 3.25421770060888 -1.288435934396373 1
      vertex 3.1668946836310683 -1.4902275204777542 0.625
    endloop
  endfacet
  facet normal -0.9408807689542259 0.33873792024529015 -1.3177658532997443e-18
    outer loop
      vertex 3.3286978070330373 -1.0815594803123159 1
      vertex 3.25421770060888 -1.288435934396373 0.625
      vertex 3.25421770060888 -1.288435934396373 1
    endloop
  endfacet
  facet normal 0 0 1
    outer loop
      vertex 2.6967963497152616 2.2309839641204148 0.625
      vertex 2.5513901959749403 -2.3959148707504108 0.625
      vertex 2.696796349715262 -2.230983964120414 0.625
    endloop
  endfacet
  facet normal -0.9602936856769428 0.27899110603922955 0
    outer loop
      vertex 3.3900410639502088 -0.8704146050769918 1
      vertex 3.3900410639502088 -0.8704146050769918 0.625
      vertex 3.3286978070330373 -1.0815594803123159 0.625
    endloop
  endfacet
  facet normal -0.9602936856769428 0.27899110603922955 8.765065934378067e-18
    outer loop
      vertex 3.3900410639502088 -0.8704146050769918 1
      vertex 3.3286978070330373 -1.0815594803123159 0.625
      vertex 3.3286978070330373 -1.0815594803123159 1
    endloop
  endfacet
  facet normal -0.9759167619387472 0.21814324139654362 -7.227479673537442e-19
    outer loop
      vertex 3.4380053775504105 -0.6558346010500362 1
      vertex 3.3900410639502088 -0.8704146050769918 0.625
      vertex 3.3900410639502088 -0.8704146050769918 1
    endloop
  endfacet
  facet normal 0 0 1
    outer loop
      vertex 2.831559480312316 2.057248383023656 0.625
      vertex 2.696796349715262 -2.230983964120414 0.625
      vertex 2.831559480312316 -2.057248383023656 0.625
    endloop
  endfacet
  facet normal 0 0 1
    outer loop
      vertex 2.9551477392570535 1.8753937824264868 0.625
      vertex 2.831559480312316 -2.057248383023656 0.625
      vertex 2.9551477392570527 -1.8753937824264884 0.625
    endloop
  endfacet
  facet normal 0 0 1
    outer loop
      vertex 3.067073380153522 1.686137859356004 0.625
      vertex 2.9551477392570527 -1.8753937824264884 0.625
      vertex 3.0670733801535226 -1.6861378593560037 0.625
    endloop
  endfacet
  facet normal -0.9759167619387472 0.21814324139654362 0
    outer loop
      vertex 3.4380053775504105 -0.6558346010500362 1
      vertex 3.4380053775504105 -0.6558346010500362 0.625
      vertex 3.3900410639502088 -0.8704146050769918 0.625
    endloop
  endfacet
  facet normal 0 0 1
    outer loop
      vertex 3.1668946836310683 1.4902275204777535 0.625
      vertex 3.0670733801535226 -1.6861378593560037 0.625
      vertex 3.1668946836310683 -1.4902275204777542 0.625
    endloop
  endfacet
  facet normal 0 0 1
    outer loop
      vertex 3.2542177006088795 1.2884359343963743 0.625
      vertex 3.1668946836310683 -1.4902275204777542 0.625
      vertex 3.25421770060888 -1.288435934396373 0.625
    endloop
  endfacet
  facet normal 0 0 1
    outer loop
      vertex 3.3286978070330373 1.0815594803123159 0.625
      vertex 3.25421770060888 -1.288435934396373 0.625
      vertex 3.3286978070330373 -1.0815594803123159 0.625
    endloop
  endfacet
  facet normal 0 0 1
    outer loop
      vertex 3.390041063950209 0.8704146050769905 0.625
      vertex 3.3286978070330373 -1.0815594803123159 0.625
      vertex 3.3900410639502088 -0.8704146050769918 0.625
    endloop
  endfacet
  facet normal 0 0 1
    outer loop
      vertex 3.43800537755041 0.6558346010500369 0.625
      vertex 3.3900410639502088 -0.8704146050769918 0.625
      vertex 3.4380053775504105 -0.6558346010500362 0.625
    endloop
  endfacet
  facet normal -0.9876883405951377 0.15643446504023195 0
    outer loop
      vertex 3.4724014546006727 -0.4386663174750649 1
      vertex 3.4724014546006727 -0.4386663174750649 0.625
      vertex 3.4380053775504105 -0.6558346010500362 0.625
    endloop
  endfacet
  facet normal -0.9876883405951377 0.15643446504023195 4.969129354709388e-18
    outer loop
      vertex 3.4724014546006727 -0.4386663174750649 1
      vertex 3.4380053775504105 -0.6558346010500362 0.625
      vertex 3.4380053775504105 -0.6558346010500362 1
    endloop
  endfacet
  facet normal 0 0 1
    outer loop
      vertex 3.4724014546006727 0.43866631747506424 0.625
      vertex 3.4380053775504105 -0.6558346010500362 0.625
      vertex 3.4724014546006727 -0.4386663174750649 0.625
    endloop
  endfacet
  facet normal -0.9955619646030803 0.0941083133185123 0
    outer loop
      vertex 3.4930935494989503 -0.21976681835259682 1
      vertex 3.4930935494989503 -0.21976681835259682 0.625
      vertex 3.4724014546006727 -0.4386663174750649 0.625
    endloop
  endfacet
  facet normal 0 0 1
    outer loop
      vertex 3.4930935494989503 0.21976681835259818 0.625
      vertex 3.4724014546006727 -0.4386663174750649 0.625
      vertex 3.4930935494989503 -0.21976681835259682 0.625
    endloop
  endfacet
  facet normal -0.9995065603657315 0.03141075907812884 0
    outer loop
      vertex 3.5 0 1
      vertex 3.5 0 0.625
      vertex 3.4930935494989503 -0.21976681835259682 0.625
    endloop
  endfacet
  facet normal -0.9955619646030803 0.0941083133185123 4.838475529114714e-18
    outer loop
      vertex 3.4930935494989503 -0.21976681835259682 1
      vertex 3.4724014546006727 -0.4386663174750649 0.625
      vertex 3.4724014546006727 -0.4386663174750649 1
    endloop
  endfacet
  facet normal -0.9995065603657315 0.03141075907812884 -3.1028210256402944e-19
    outer loop
      vertex 3.5 0 1
      vertex 3.4930935494989503 -0.21976681835259682 0.625
      vertex 3.4930935494989503 -0.21976681835259682 1
    endloop
  endfacet
  facet normal 0 0 1
    outer loop
      vertex -3.4930935494989503 0.21976681835259648 0.625
      vertex -3.5 0 0.625
      vertex -3.4930935494989503 -0.21976681835259648 0.625
    endloop
  endfacet
  facet normal 0 0 1
    outer loop
      vertex -3.4724014546006727 0.43866631747506424 0.625
      vertex -3.4930935494989503 0.21976681835259648 0.625
      vertex -3.4930935494989503 -0.21976681835259648 0.625
    endloop
  endfacet
  facet normal 0 0 1
    outer loop
      vertex -3.43800537755041 0.6558346010500369 0.625
      vertex -3.4724014546006727 0.43866631747506424 0.625
      vertex -3.4724014546006727 -0.43866631747506424 0.625
    endloop
  endfacet
  facet normal 0 0 1
    outer loop
      vertex -3.3900410639502088 0.870414605076992 0.625
      vertex -3.43800537755041 0.6558346010500369 0.625
      vertex -3.43800537755041 -0.6558346010500369 0.625
    endloop
  endfacet
  facet normal 0 0 1
    outer loop
      vertex -3.3286978070330373 1.0815594803123159 0.625
      vertex -3.3900410639502088 0.870414605076992 0.625
      vertex -3.3900410639502088 -0.870414605076992 0.625
    endloop
  endfacet
  facet normal 0 0 1
    outer loop
      vertex -3.25421770060888 1.2884359343963725 0.625
      vertex -3.3286978070330373 1.0815594803123159 0.625
      vertex -3.3286978070330373 -1.0815594803123159 0.625
    endloop
  endfacet
  facet normal 0 0 1
    outer loop
      vertex -3.1668946836310683 1.4902275204777535 0.625
      vertex -3.25421770060888 1.2884359343963725 0.625
      vertex -3.25421770060888 -1.2884359343963725 0.625
    endloop
  endfacet
  facet normal 0 0 1
    outer loop
      vertex -3.067073380153522 1.686137859356004 0.625
      vertex -3.1668946836310683 1.4902275204777535 0.625
      vertex -3.1668946836310683 -1.4902275204777535 0.625
    endloop
  endfacet
  facet normal 0 0 1
    outer loop
      vertex -2.955147739257052 1.8753937824264884 0.625
      vertex -3.067073380153522 1.686137859356004 0.625
      vertex -3.067073380153522 -1.686137859356004 0.625
    endloop
  endfacet
  facet normal 0 0 1
    outer loop
      vertex -2.831559480312316 2.057248383023656 0.625
      vertex -2.955147739257052 1.8753937824264884 0.625
      vertex -2.955147739257052 -1.8753937824264884 0.625
    endloop
  endfacet
  facet normal 0 0 1
    outer loop
      vertex -2.696796349715263 2.230983964120414 0.625
      vertex -2.831559480312316 2.057248383023656 0.625
      vertex -2.831559480312316 -2.057248383023656 0.625
    endloop
  endfacet
  facet normal 0 0 1
    outer loop
      vertex -2.5513901959749408 2.39591487075041 0.625
      vertex -2.696796349715263 2.230983964120414 0.625
      vertex -2.696796349715263 -2.230983964120414 0.625
    endloop
  endfacet
  facet normal 0 0 1
    outer loop
      vertex -2.39591487075041 2.5513901959749408 0.625
      vertex -2.5513901959749408 2.39591487075041 0.625
      vertex -2.5513901959749408 -2.39591487075041 0.625
    endloop
  endfacet
  facet normal 0 0 1
    outer loop
      vertex -2.230983964120414 2.696796349715263 0.625
      vertex -2.39591487075041 2.5513901959749408 0.625
      vertex -2.39591487075041 -2.5513901959749408 0.625
    endloop
  endfacet
  facet normal 0 0 1
    outer loop
      vertex -2.230983964120414 2.696796349715263 0.625
      vertex -2.230983964120414 -2.696796349715263 0.625
      vertex -2.057248383023656 2.831559480312316 0.625
    endloop
  endfacet
  facet normal 0 0 1
    outer loop
      vertex -1.8753937824264884 2.955147739257052 0.625
      vertex -2.057248383023656 2.831559480312316 0.625
      vertex -2.057248383023656 -2.831559480312316 0.625
    endloop
  endfacet
  facet normal 0 0 1
    outer loop
      vertex -1.686137859356004 3.067073380153522 0.625
      vertex -1.8753937824264884 2.955147739257052 0.625
      vertex -1.8753937824264884 -2.955147739257052 0.625
    endloop
  endfacet
  facet normal 0 0 1
    outer loop
      vertex -1.686137859356004 3.067073380153522 0.625
      vertex -1.6861378593560032 -3.0670733801535226 0.625
      vertex -1.4902275204777535 3.1668946836310683 0.625
    endloop
  endfacet
  facet normal 0 0 1
    outer loop
      vertex -1.4902275204777535 3.1668946836310683 0.625
      vertex -1.4902275204777544 -3.1668946836310683 0.625
      vertex -1.2884359343963725 3.25421770060888 0.625
    endloop
  endfacet
  facet normal 0 0 1
    outer loop
      vertex -1.0815594803123159 3.3286978070330373 0.625
      vertex -1.2884359343963725 3.25421770060888 0.625
      vertex -1.2884359343963725 -3.25421770060888 0.625
    endloop
  endfacet
  facet normal 0 0 1
    outer loop
      vertex -1.0815594803123159 3.3286978070330373 0.625
      vertex -1.0815594803123159 -3.3286978070330373 0.625
      vertex -0.870414605076992 3.3900410639502088 0.625
    endloop
  endfacet
  facet normal 0 0 1
    outer loop
      vertex -0.870414605076992 3.3900410639502088 0.625
      vertex -0.870414605076992 -3.3900410639502088 0.625
      vertex -0.6558346010500369 3.43800537755041 0.625
    endloop
  endfacet
  facet normal 0 0 1
    outer loop
      vertex -0.6558346010500369 3.43800537755041 0.625
      vertex -0.655834601050036 -3.4380053775504105 0.625
      vertex -0.43866631747506424 3.4724014546006727 0.625
    endloop
  endfacet
  facet normal 0 0 1
    outer loop
      vertex -0.43866631747506424 3.4724014546006727 0.625
      vertex -0.438666317475065 -3.4724014546006727 0.625
      vertex -0.21976681835259818 3.4930935494989503 0.625
    endloop
  endfacet
  facet normal 0 0 1
    outer loop
      vertex -0.21976681835259818 3.4930935494989503 0.625
      vertex -0.21976681835259648 -3.4930935494989503 0.625
      vertex 0 3.5 0.625
    endloop
  endfacet
  facet normal 0.9995065603657315 -0.03141075907812889 0
    outer loop
      vertex -3.4930935494989503 0.21976681835259648 0.625
      vertex -3.4930935494989503 0.21976681835259648 2.5
      vertex -3.5 0 0.625
    endloop
  endfacet
  facet normal 0.9955619646030802 -0.09410831331851244 0
    outer loop
      vertex -3.4724014546006727 0.43866631747506424 0.625
      vertex -3.4724014546006727 0.43866631747506424 2.5
      vertex -3.4930935494989503 0.21976681835259648 0.625
    endloop
  endfacet
  facet normal 0.9876883405951374 -0.15643446504023298 0
    outer loop
      vertex -3.43800537755041 0.6558346010500369 0.625
      vertex -3.43800537755041 0.6558346010500369 2.5
      vertex -3.4724014546006727 0.43866631747506424 0.625
    endloop
  endfacet
  facet normal 0.9759167619387474 -0.21814324139654206 0
    outer loop
      vertex -3.3900410639502088 0.870414605076992 0.625
      vertex -3.3900410639502088 0.870414605076992 2.5
      vertex -3.43800537755041 0.6558346010500369 0.625
    endloop
  endfacet
  facet normal 0.9602936856769428 -0.27899110603922983 0
    outer loop
      vertex -3.3286978070330373 1.0815594803123159 0.625
      vertex -3.3286978070330373 1.0815594803123159 2.5
      vertex -3.3900410639502088 0.870414605076992 0.625
    endloop
  endfacet
  facet normal 0.9408807689542256 -0.3387379202452908 0
    outer loop
      vertex -3.25421770060888 1.2884359343963725 0.625
      vertex -3.25421770060888 1.2884359343963725 2.5
      vertex -3.3286978070330373 1.0815594803123159 0.625
    endloop
  endfacet
  facet normal 0.9177546256839807 -0.3971478906347815 0
    outer loop
      vertex -3.1668946836310683 1.4902275204777535 0.625
      vertex -3.1668946836310683 1.4902275204777535 2.5
      vertex -3.25421770060888 1.2884359343963725 0.625
    endloop
  endfacet
  facet normal 0.9995065603657315 -0.03141075907812889 0
    outer loop
      vertex -3.5 0 0.625
      vertex -3.4930935494989503 0.21976681835259648 2.5
      vertex -3.5 0 2.5
    endloop
  endfacet
  facet normal 0.9955619646030802 -0.09410831331851244 0
    outer loop
      vertex -3.4930935494989503 0.21976681835259648 0.625
      vertex -3.4724014546006727 0.43866631747506424 2.5
      vertex -3.4930935494989503 0.21976681835259648 2.5
    endloop
  endfacet
  facet normal 0.9876883405951374 -0.15643446504023298 0
    outer loop
      vertex -3.4724014546006727 0.43866631747506424 0.625
      vertex -3.43800537755041 0.6558346010500369 2.5
      vertex -3.4724014546006727 0.43866631747506424 2.5
    endloop
  endfacet
  facet normal 0.9759167619387474 -0.21814324139654206 0
    outer loop
      vertex -3.43800537755041 0.6558346010500369 0.625
      vertex -3.3900410639502088 0.870414605076992 2.5
      vertex -3.43800537755041 0.6558346010500369 2.5
    endloop
  endfacet
  facet normal 0.9602936856769428 -0.27899110603922983 0
    outer loop
      vertex -3.3900410639502088 0.870414605076992 0.625
      vertex -3.3286978070330373 1.0815594803123159 2.5
      vertex -3.3900410639502088 0.870414605076992 2.5
    endloop
  endfacet
  facet normal 0.9408807689542256 -0.3387379202452908 0
    outer loop
      vertex -3.3286978070330373 1.0815594803123159 0.625
      vertex -3.25421770060888 1.2884359343963725 2.5
      vertex -3.3286978070330373 1.0815594803123159 2.5
    endloop
  endfacet
  facet normal 0.9177546256839807 -0.3971478906347815 0
    outer loop
      vertex -3.25421770060888 1.2884359343963725 0.625
      vertex -3.1668946836310683 1.4902275204777535 2.5
      vertex -3.25421770060888 1.2884359343963725 2.5
    endloop
  endfacet
  facet normal 0.8910065241883683 -0.45399049973954586 0
    outer loop
      vertex -3.067073380153522 1.686137859356004 0.625
      vertex -3.067073380153522 1.686137859356004 2.5
      vertex -3.1668946836310683 1.4902275204777535 0.625
    endloop
  endfacet
  facet normal 0.860742027003943 -0.5090414157503723 0
    outer loop
      vertex -2.955147739257052 1.8753937824264884 0.625
      vertex -2.955147739257052 1.8753937824264884 2.5
      vertex -3.067073380153522 1.686137859356004 0.625
    endloop
  endfacet
  facet normal 0.8270805742745629 -0.5620833778521291 0
    outer loop
      vertex -2.831559480312316 2.057248383023656 0.625
      vertex -2.831559480312316 2.057248383023656 2.5
      vertex -2.955147739257052 1.8753937824264884 0.625
    endloop
  endfacet
  facet normal 0.7901550123756914 -0.6129070536529749 0
    outer loop
      vertex -2.696796349715263 2.230983964120414 0.625
      vertex -2.696796349715263 2.230983964120414 2.5
      vertex -2.831559480312316 2.057248383023656 0.625
    endloop
  endfacet
  facet normal 0.7501110696304583 -0.6613118653236533 0
    outer loop
      vertex -2.5513901959749408 2.39591487075041 0.625
      vertex -2.5513901959749408 2.39591487075041 2.5
      vertex -2.696796349715263 2.230983964120414 0.625
    endloop
  endfacet
  facet normal 0.7071067811865475 -0.7071067811865475 0
    outer loop
      vertex -2.39591487075041 2.5513901959749408 0.625
      vertex -2.39591487075041 2.5513901959749408 2.5
      vertex -2.5513901959749408 2.39591487075041 0.625
    endloop
  endfacet
  facet normal 0.6613118653236533 -0.7501110696304583 0
    outer loop
      vertex -2.230983964120414 2.696796349715263 0.625
      vertex -2.230983964120414 2.696796349715263 2.5
      vertex -2.39591487075041 2.5513901959749408 0.625
    endloop
  endfacet
  facet normal 0.6129070536529749 -0.7901550123756914 2.1949307987761705e-18
    outer loop
      vertex -2.230983964120414 2.696796349715263 0.625
      vertex -2.057248383023656 2.831559480312316 0.625
      vertex -2.057248383023656 2.831559480312316 2.5
    endloop
  endfacet
  facet normal 0.5620833778521291 -0.8270805742745629 0
    outer loop
      vertex -1.8753937824264884 2.955147739257052 0.625
      vertex -1.8753937824264884 2.955147739257052 2.5
      vertex -2.057248383023656 2.831559480312316 0.625
    endloop
  endfacet
  facet normal 0.8910065241883683 -0.45399049973954586 0
    outer loop
      vertex -3.1668946836310683 1.4902275204777535 0.625
      vertex -3.067073380153522 1.686137859356004 2.5
      vertex -3.1668946836310683 1.4902275204777535 2.5
    endloop
  endfacet
  facet normal 0.860742027003943 -0.5090414157503723 0
    outer loop
      vertex -3.067073380153522 1.686137859356004 0.625
      vertex -2.955147739257052 1.8753937824264884 2.5
      vertex -3.067073380153522 1.686137859356004 2.5
    endloop
  endfacet
  facet normal 0.8270805742745629 -0.5620833778521291 0
    outer loop
      vertex -2.955147739257052 1.8753937824264884 0.625
      vertex -2.831559480312316 2.057248383023656 2.5
      vertex -2.955147739257052 1.8753937824264884 2.5
    endloop
  endfacet
  facet normal 0.7901550123756914 -0.6129070536529749 0
    outer loop
      vertex -2.831559480312316 2.057248383023656 0.625
      vertex -2.696796349715263 2.230983964120414 2.5
      vertex -2.831559480312316 2.057248383023656 2.5
    endloop
  endfacet
  facet normal 0.7501110696304583 -0.6613118653236533 0
    outer loop
      vertex -2.696796349715263 2.230983964120414 0.625
      vertex -2.5513901959749408 2.39591487075041 2.5
      vertex -2.696796349715263 2.230983964120414 2.5
    endloop
  endfacet
  facet normal 0.7071067811865475 -0.7071067811865475 0
    outer loop
      vertex -2.5513901959749408 2.39591487075041 0.625
      vertex -2.39591487075041 2.5513901959749408 2.5
      vertex -2.5513901959749408 2.39591487075041 2.5
    endloop
  endfacet
  facet normal 0.6613118653236533 -0.7501110696304583 0
    outer loop
      vertex -2.39591487075041 2.5513901959749408 0.625
      vertex -2.230983964120414 2.696796349715263 2.5
      vertex -2.39591487075041 2.5513901959749408 2.5
    endloop
  endfacet
  facet normal 0.6129070536529749 -0.7901550123756914 0
    outer loop
      vertex -2.230983964120414 2.696796349715263 0.625
      vertex -2.057248383023656 2.831559480312316 2.5
      vertex -2.230983964120414 2.696796349715263 2.5
    endloop
  endfacet
  facet normal 0.5620833778521291 -0.8270805742745629 0
    outer loop
      vertex -2.057248383023656 2.831559480312316 0.625
      vertex -1.8753937824264884 2.955147739257052 2.5
      vertex -2.057248383023656 2.831559480312316 2.5
    endloop
  endfacet
  facet normal 0.5090414157503723 -0.860742027003943 0
    outer loop
      vertex -1.8753937824264884 2.955147739257052 0.625
      vertex -1.686137859356004 3.067073380153522 2.5
      vertex -1.8753937824264884 2.955147739257052 2.5
    endloop
  endfacet
  facet normal 0.5090414157503723 -0.860742027003943 0
    outer loop
      vertex -1.686137859356004 3.067073380153522 0.625
      vertex -1.686137859356004 3.067073380153522 2.5
      vertex -1.8753937824264884 2.955147739257052 0.625
    endloop
  endfacet
  facet normal 0.45399049973954586 -0.8910065241883683 -3.743072904053225e-19
    outer loop
      vertex -1.686137859356004 3.067073380153522 0.625
      vertex -1.4902275204777535 3.1668946836310683 0.625
      vertex -1.4902275204777535 3.1668946836310683 2.5
    endloop
  endfacet
  facet normal 0.3971478906347815 -0.9177546256839807 3.84519419164769e-18
    outer loop
      vertex -1.4902275204777535 3.1668946836310683 0.625
      vertex -1.2884359343963725 3.25421770060888 0.625
      vertex -1.2884359343963725 3.25421770060888 2.5
    endloop
  endfacet
  facet normal 0.3387379202452908 -0.9408807689542256 0
    outer loop
      vertex -1.0815594803123159 3.3286978070330373 0.625
      vertex -1.0815594803123159 3.3286978070330373 2.5
      vertex -1.2884359343963725 3.25421770060888 0.625
    endloop
  endfacet
  facet normal 0.27899110603922983 -0.9602936856769428 -1.8317455658560922e-18
    outer loop
      vertex -1.0815594803123159 3.3286978070330373 0.625
      vertex -0.870414605076992 3.3900410639502088 0.625
      vertex -0.870414605076992 3.3900410639502088 2.5
    endloop
  endfacet
  facet normal 0.21814324139654206 -0.9759167619387474 -1.0338431221412586e-18
    outer loop
      vertex -0.870414605076992 3.3900410639502088 0.625
      vertex -0.6558346010500369 3.43800537755041 0.625
      vertex -0.6558346010500369 3.43800537755041 2.5
    endloop
  endfacet
  facet normal 0.15643446504023298 -0.9876883405951374 1.0412381113162592e-18
    outer loop
      vertex -0.6558346010500369 3.43800537755041 0.625
      vertex -0.43866631747506424 3.4724014546006727 0.625
      vertex -0.43866631747506424 3.4724014546006727 2.5
    endloop
  endfacet
  facet normal 0.09410831331851316 -0.9955619646030801 2.592453157455384e-19
    outer loop
      vertex -0.43866631747506424 3.4724014546006727 0.625
      vertex -0.21976681835259818 3.4930935494989503 0.625
      vertex -0.21976681835259818 3.4930935494989503 2.5
    endloop
  endfacet
  facet normal 0.45399049973954586 -0.8910065241883683 0
    outer loop
      vertex -1.686137859356004 3.067073380153522 0.625
      vertex -1.4902275204777535 3.1668946836310683 2.5
      vertex -1.686137859356004 3.067073380153522 2.5
    endloop
  endfacet
  facet normal 0.3971478906347815 -0.9177546256839807 0
    outer loop
      vertex -1.4902275204777535 3.1668946836310683 0.625
      vertex -1.2884359343963725 3.25421770060888 2.5
      vertex -1.4902275204777535 3.1668946836310683 2.5
    endloop
  endfacet
  facet normal 0.3387379202452908 -0.9408807689542256 0
    outer loop
      vertex -1.2884359343963725 3.25421770060888 0.625
      vertex -1.0815594803123159 3.3286978070330373 2.5
      vertex -1.2884359343963725 3.25421770060888 2.5
    endloop
  endfacet
  facet normal 0.27899110603922983 -0.9602936856769428 0
    outer loop
      vertex -1.0815594803123159 3.3286978070330373 0.625
      vertex -0.870414605076992 3.3900410639502088 2.5
      vertex -1.0815594803123159 3.3286978070330373 2.5
    endloop
  endfacet
  facet normal 0.21814324139654206 -0.9759167619387474 0
    outer loop
      vertex -0.870414605076992 3.3900410639502088 0.625
      vertex -0.6558346010500369 3.43800537755041 2.5
      vertex -0.870414605076992 3.3900410639502088 2.5
    endloop
  endfacet
  facet normal 0.15643446504023298 -0.9876883405951374 0
    outer loop
      vertex -0.6558346010500369 3.43800537755041 0.625
      vertex -0.43866631747506424 3.4724014546006727 2.5
      vertex -0.6558346010500369 3.43800537755041 2.5
    endloop
  endfacet
  facet normal 0.09410831331851316 -0.9955619646030801 0
    outer loop
      vertex -0.43866631747506424 3.4724014546006727 0.625
      vertex -0.21976681835259818 3.4930935494989503 2.5
      vertex -0.43866631747506424 3.4724014546006727 2.5
    endloop
  endfacet
  facet normal 0.031410759078128646 -0.9995065603657315 0
    outer loop
      vertex -0.21976681835259818 3.4930935494989503 0.625
      vertex 0 3.5 2.5
      vertex -0.21976681835259818 3.4930935494989503 2.5
    endloop
  endfacet
  facet normal 0 0 1
    outer loop
      vertex 0 3.5 0.625
      vertex 0 -3.5 0.625
      vertex 0.21976681835259818 3.4930935494989503 0.625
    endloop
  endfacet
  facet normal 0 0 1
    outer loop
      vertex 0.21976681835259818 3.4930935494989503 0.625
      vertex 0.21976681835259648 -3.4930935494989503 0.625
      vertex 0.43866631747506424 3.4724014546006727 0.625
    endloop
  endfacet
  facet normal 0 0 1
    outer loop
      vertex 0.43866631747506424 3.4724014546006727 0.625
      vertex 0.438666317475065 -3.4724014546006727 0.625
      vertex 0.6558346010500369 3.43800537755041 0.625
    endloop
  endfacet
  facet normal 0 0 1
    outer loop
      vertex 0.6558346010500369 3.43800537755041 0.625
      vertex 0.655834601050036 -3.4380053775504105 0.625
      vertex 0.8704146050769905 3.390041063950209 0.625
    endloop
  endfacet
  facet normal 0 0 1
    outer loop
      vertex 0.8704146050769905 3.390041063950209 0.625
      vertex 0.870414605076992 -3.3900410639502088 0.625
      vertex 1.0815594803123159 3.3286978070330373 0.625
    endloop
  endfacet
  facet normal 0 0 1
    outer loop
      vertex 1.0815594803123159 3.3286978070330373 0.625
      vertex 1.0815594803123159 -3.3286978070330373 0.625
      vertex 1.2884359343963743 3.2542177006088795 0.625
    endloop
  endfacet
  facet normal 0 0 1
    outer loop
      vertex 1.2884359343963743 3.2542177006088795 0.625
      vertex 1.2884359343963725 -3.25421770060888 0.625
      vertex 1.4902275204777535 3.1668946836310683 0.625
    endloop
  endfacet
  facet normal 0 0 1
    outer loop
      vertex 1.4902275204777535 3.1668946836310683 0.625
      vertex 1.4902275204777544 -3.1668946836310683 0.625
      vertex 1.686137859356004 3.067073380153522 0.625
    endloop
  endfacet
  facet normal 0 0 1
    outer loop
      vertex 3.390041063950209 0.8704146050769905 0.625
      vertex 3.3900410639502088 -0.8704146050769918 0.625
      vertex 3.43800537755041 0.6558346010500369 0.625
    endloop
  endfacet
  facet normal 0 0 1
    outer loop
      vertex 3.2542177006088795 1.2884359343963743 0.625
      vertex 3.25421770060888 -1.288435934396373 0.625
      vertex 3.3286978070330373 1.0815594803123159 0.625
    endloop
  endfacet
  facet normal 0 0 1
    outer loop
      vertex 3.3286978070330373 1.0815594803123159 0.625
      vertex 3.3286978070330373 -1.0815594803123159 0.625
      vertex 3.390041063950209 0.8704146050769905 0.625
    endloop
  endfacet
  facet normal 0 0 1
    outer loop
      vertex 2.5513901959749408 2.39591487075041 0.625
      vertex 2.5513901959749403 -2.3959148707504108 0.625
      vertex 2.6967963497152616 2.2309839641204148 0.625
    endloop
  endfacet
  facet normal 0 0 1
    outer loop
      vertex 2.6967963497152616 2.2309839641204148 0.625
      vertex 2.696796349715262 -2.230983964120414 0.625
      vertex 2.831559480312316 2.057248383023656 0.625
    endloop
  endfacet
  facet normal 0 0 1
    outer loop
      vertex 2.831559480312316 2.057248383023656 0.625
      vertex 2.831559480312316 -2.057248383023656 0.625
      vertex 2.9551477392570535 1.8753937824264868 0.625
    endloop
  endfacet
  facet normal 0 0 1
    outer loop
      vertex 3.1668946836310683 1.4902275204777535 0.625
      vertex 3.1668946836310683 -1.4902275204777542 0.625
      vertex 3.2542177006088795 1.2884359343963743 0.625
    endloop
  endfacet
  facet normal 0 0 1
    outer loop
      vertex 3.067073380153522 1.686137859356004 0.625
      vertex 3.0670733801535226 -1.6861378593560037 0.625
      vertex 3.1668946836310683 1.4902275204777535 0.625
    endloop
  endfacet
  facet normal 0 0 1
    outer loop
      vertex 2.9551477392570535 1.8753937824264868 0.625
      vertex 2.9551477392570527 -1.8753937824264884 0.625
      vertex 3.067073380153522 1.686137859356004 0.625
    endloop
  endfacet
  facet normal -0.9759167619387477 -0.2181432413965416 1.7775374180448062e-18
    outer loop
      vertex 3.390041063950209 0.8704146050769905 1
      vertex 3.43800537755041 0.6558346010500369 0.625
      vertex 3.43800537755041 0.6558346010500369 1
    endloop
  endfacet
  facet normal 0 0 1
    outer loop
      vertex 1.686137859356004 3.067073380153522 0.625
      vertex 1.6861378593560032 -3.0670733801535226 0.625
      vertex 1.8753937824264868 2.9551477392570535 0.625
    endloop
  endfacet
  facet normal 0 0 1
    outer loop
      vertex 1.8753937824264868 2.9551477392570535 0.625
      vertex 1.8753937824264884 -2.9551477392570527 0.625
      vertex 2.057248383023656 2.831559480312316 0.625
    endloop
  endfacet
  facet normal 0 0 1
    outer loop
      vertex 2.057248383023656 2.831559480312316 0.625
      vertex 2.057248383023656 -2.831559480312316 0.625
      vertex 2.2309839641204148 2.6967963497152616 0.625
    endloop
  endfacet
  facet normal 0 0 1
    outer loop
      vertex 2.2309839641204148 2.6967963497152616 0.625
      vertex 2.230983964120414 -2.696796349715262 0.625
      vertex 2.39591487075041 2.5513901959749408 0.625
    endloop
  endfacet
  facet normal 0 0 1
    outer loop
      vertex 2.39591487075041 2.5513901959749408 0.625
      vertex 2.3959148707504108 -2.5513901959749403 0.625
      vertex 2.5513901959749408 2.39591487075041 0.625
    endloop
  endfacet
  facet normal -0.9759167619387477 -0.2181432413965416 0
    outer loop
      vertex 3.390041063950209 0.8704146050769905 1
      vertex 3.390041063950209 0.8704146050769905 0.625
      vertex 3.43800537755041 0.6558346010500369 0.625
    endloop
  endfacet
  facet normal -0.9602936856769428 -0.27899110603922994 0
    outer loop
      vertex 3.3286978070330373 1.0815594803123159 1
      vertex 3.3286978070330373 1.0815594803123159 0.625
      vertex 3.390041063950209 0.8704146050769905 0.625
    endloop
  endfacet
  facet normal -0.9602936856769428 -0.27899110603922994 7.250968594095084e-18
    outer loop
      vertex 3.3286978070330373 1.0815594803123159 1
      vertex 3.390041063950209 0.8704146050769905 0.625
      vertex 3.390041063950209 0.8704146050769905 1
    endloop
  endfacet
  facet normal -0.940880768954226 -0.3387379202452901 0
    outer loop
      vertex 3.2542177006088795 1.2884359343963743 1
      vertex 3.2542177006088795 1.2884359343963743 0.625
      vertex 3.3286978070330373 1.0815594803123159 0.625
    endloop
  endfacet
  facet normal -0.9177546256839803 -0.3971478906347828 0
    outer loop
      vertex 3.1668946836310683 1.4902275204777535 1
      vertex 3.1668946836310683 1.4902275204777535 0.625
      vertex 3.2542177006088795 1.2884359343963743 0.625
    endloop
  endfacet
  facet normal -0.940880768954226 -0.3387379202452901 -2.071470263277455e-18
    outer loop
      vertex 3.2542177006088795 1.2884359343963743 1
      vertex 3.3286978070330373 1.0815594803123159 0.625
      vertex 3.3286978070330373 1.0815594803123159 1
    endloop
  endfacet
  facet normal -0.9177546256839803 -0.3971478906347828 3.441637587321676e-18
    outer loop
      vertex 3.1668946836310683 1.4902275204777535 1
      vertex 3.2542177006088795 1.2884359343963743 0.625
      vertex 3.2542177006088795 1.2884359343963743 1
    endloop
  endfacet
  facet normal -0.8910065241883683 -0.4539904997395459 0
    outer loop
      vertex 3.067073380153522 1.686137859356004 1
      vertex 3.067073380153522 1.686137859356004 0.625
      vertex 3.1668946836310683 1.4902275204777535 0.625
    endloop
  endfacet
  facet normal -0.8607420270039439 -0.509041415750371 0
    outer loop
      vertex 2.9551477392570535 1.8753937824264868 1
      vertex 2.9551477392570535 1.8753937824264868 0.625
      vertex 3.067073380153522 1.686137859356004 0.625
    endloop
  endfacet
  facet normal -0.8910065241883683 -0.4539904997395459 1.8715364520266127e-18
    outer loop
      vertex 3.067073380153522 1.686137859356004 1
      vertex 3.1668946836310683 1.4902275204777535 0.625
      vertex 3.1668946836310683 1.4902275204777535 1
    endloop
  endfacet
  facet normal -0.8607420270039439 -0.509041415750371 7.558683405279702e-18
    outer loop
      vertex 2.9551477392570535 1.8753937824264868 1
      vertex 3.067073380153522 1.686137859356004 0.625
      vertex 3.067073380153522 1.686137859356004 1
    endloop
  endfacet
  facet normal -0.8270805742745623 -0.56208337785213 0
    outer loop
      vertex 2.831559480312316 2.057248383023656 1
      vertex 2.831559480312316 2.057248383023656 0.625
      vertex 2.9551477392570535 1.8753937824264868 0.625
    endloop
  endfacet
  facet normal -0.7901550123756901 -0.6129070536529768 0
    outer loop
      vertex 2.6967963497152616 2.2309839641204148 1
      vertex 2.6967963497152616 2.2309839641204148 0.625
      vertex 2.831559480312316 2.057248383023656 0.625
    endloop
  endfacet
  facet normal -0.8270805742745623 -0.56208337785213 -1.972908239675434e-17
    outer loop
      vertex 2.831559480312316 2.057248383023656 1
      vertex 2.9551477392570535 1.8753937824264868 0.625
      vertex 2.9551477392570535 1.8753937824264868 1
    endloop
  endfacet
  facet normal -0.7901550123756901 -0.6129070536529768 -1.9971911024737575e-17
    outer loop
      vertex 2.6967963497152616 2.2309839641204148 1
      vertex 2.831559480312316 2.057248383023656 0.625
      vertex 2.831559480312316 2.057248383023656 1
    endloop
  endfacet
  facet normal -0.7071067811865475 -0.7071067811865475 0
    outer loop
      vertex 2.39591487075041 2.5513901959749408 1
      vertex 2.39591487075041 2.5513901959749408 0.625
      vertex 2.5513901959749408 2.39591487075041 0.625
    endloop
  endfacet
  facet normal -0.7071067811865475 -0.7071067811865475 9.124526168320041e-18
    outer loop
      vertex 2.39591487075041 2.5513901959749408 1
      vertex 2.5513901959749408 2.39591487075041 0.625
      vertex 2.5513901959749408 2.39591487075041 1
    endloop
  endfacet
  facet normal -0.6613118653236518 -0.7501110696304596 7.067654141505777e-18
    outer loop
      vertex 2.2309839641204148 2.6967963497152616 1
      vertex 2.39591487075041 2.5513901959749408 0.625
      vertex 2.39591487075041 2.5513901959749408 1
    endloop
  endfacet
  facet normal -0.56208337785213 -0.8270805742745623 0
    outer loop
      vertex 1.8753937824264868 2.9551477392570535 1
      vertex 1.8753937824264868 2.9551477392570535 0.625
      vertex 2.057248383023656 2.831559480312316 0.625
    endloop
  endfacet
  facet normal -0.6613118653236518 -0.7501110696304596 0
    outer loop
      vertex 2.2309839641204148 2.6967963497152616 1
      vertex 2.2309839641204148 2.6967963497152616 0.625
      vertex 2.39591487075041 2.5513901959749408 0.625
    endloop
  endfacet
  facet normal -0.6129070536529768 -0.7901550123756901 0
    outer loop
      vertex 2.057248383023656 2.831559480312316 1
      vertex 2.057248383023656 2.831559480312316 0.625
      vertex 2.2309839641204148 2.6967963497152616 0.625
    endloop
  endfacet
  facet normal -0.509041415750371 -0.8607420270039439 7.558683405279702e-18
    outer loop
      vertex 1.686137859356004 3.067073380153522 1
      vertex 1.8753937824264868 2.9551477392570535 0.625
      vertex 1.8753937824264868 2.9551477392570535 1
    endloop
  endfacet
  facet normal -0.56208337785213 -0.8270805742745623 -1.972908239675434e-17
    outer loop
      vertex 1.8753937824264868 2.9551477392570535 1
      vertex 2.057248383023656 2.831559480312316 0.625
      vertex 2.057248383023656 2.831559480312316 1
    endloop
  endfacet
  facet normal -0.6129070536529768 -0.7901550123756901 -1.9971911024737575e-17
    outer loop
      vertex 2.057248383023656 2.831559480312316 1
      vertex 2.2309839641204148 2.6967963497152616 0.625
      vertex 2.2309839641204148 2.6967963497152616 1
    endloop
  endfacet
  facet normal -0.7501110696304596 -0.6613118653236518 0
    outer loop
      vertex 2.5513901959749408 2.39591487075041 1
      vertex 2.5513901959749408 2.39591487075041 0.625
      vertex 2.6967963497152616 2.2309839641204148 0.625
    endloop
  endfacet
  facet normal -0.7501110696304596 -0.6613118653236518 7.067654141505777e-18
    outer loop
      vertex 2.5513901959749408 2.39591487075041 1
      vertex 2.6967963497152616 2.2309839641204148 0.625
      vertex 2.6967963497152616 2.2309839641204148 1
    endloop
  endfacet
  facet normal 0 0 1
    outer loop
      vertex 3.4930935494989503 0.21976681835259818 0.625
      vertex 3.4930935494989503 -0.21976681835259682 0.625
      vertex 3.5 0 0.625
    endloop
  endfacet
  facet normal 0 0 1
    outer loop
      vertex 3.4724014546006727 0.43866631747506424 0.625
      vertex 3.4724014546006727 -0.4386663174750649 0.625
      vertex 3.4930935494989503 0.21976681835259818 0.625
    endloop
  endfacet
  facet normal 0 0 1
    outer loop
      vertex 3.43800537755041 0.6558346010500369 0.625
      vertex 3.4380053775504105 -0.6558346010500362 0.625
      vertex 3.4724014546006727 0.43866631747506424 0.625
    endloop
  endfacet
  facet normal -0.9995065603657316 -0.03141075907812865 0
    outer loop
      vertex 3.4930935494989503 0.21976681835259818 1
      vertex 3.4930935494989503 0.21976681835259818 0.625
      vertex 3.5 0 0.625
    endloop
  endfacet
  facet normal -0.9955619646030802 -0.09410831331851317 0
    outer loop
      vertex 3.4724014546006727 0.43866631747506424 1
      vertex 3.4724014546006727 0.43866631747506424 0.625
      vertex 3.4930935494989503 0.21976681835259818 0.625
    endloop
  endfacet
  facet normal -0.9995065603657316 -0.03141075907812865 -5.24060625855101e-19
    outer loop
      vertex 3.4930935494989503 0.21976681835259818 1
      vertex 3.5 0 0.625
      vertex 3.5 0 1
    endloop
  endfacet
  facet normal -0.9955619646030802 -0.09410831331851317 -1.296226578727692e-18
    outer loop
      vertex 3.4724014546006727 0.43866631747506424 1
      vertex 3.4930935494989503 0.21976681835259818 0.625
      vertex 3.4930935494989503 0.21976681835259818 1
    endloop
  endfacet
  facet normal -0.9876883405951373 -0.15643446504023298 0
    outer loop
      vertex 3.43800537755041 0.6558346010500369 1
      vertex 3.43800537755041 0.6558346010500369 0.625
      vertex 3.4724014546006727 0.43866631747506424 0.625
    endloop
  endfacet
  facet normal -0.9876883405951373 -0.15643446504023298 -5.206190556581296e-18
    outer loop
      vertex 3.43800537755041 0.6558346010500369 1
      vertex 3.4724014546006727 0.43866631747506424 0.625
      vertex 3.4724014546006727 0.43866631747506424 1
    endloop
  endfacet
  facet normal -0.2181432413965416 -0.9759167619387477 0
    outer loop
      vertex 0.6558346010500369 3.43800537755041 1
      vertex 0.6558346010500369 3.43800537755041 0.625
      vertex 0.8704146050769905 3.390041063950209 0.625
    endloop
  endfacet
  facet normal -0.1564344650402389 -0.9876883405951363 -2.247219654309899e-19
    outer loop
      vertex 0.6479420812326199 3.439255429884442 1
      vertex 0.6558346010500369 3.43800537755041 0.625
      vertex 0.6558346010500369 3.43800537755041 1
    endloop
  endfacet
  facet normal -0.27899110603922994 -0.9602936856769428 0
    outer loop
      vertex 0.8704146050769905 3.390041063950209 1
      vertex 0.8704146050769905 3.390041063950209 0.625
      vertex 1.0815594803123159 3.3286978070330373 0.625
    endloop
  endfacet
  facet normal -0.3387379202452901 -0.940880768954226 0
    outer loop
      vertex 1.0815594803123159 3.3286978070330373 1
      vertex 1.0815594803123159 3.3286978070330373 0.625
      vertex 1.2884359343963743 3.2542177006088795 0.625
    endloop
  endfacet
  facet normal -0.4539904997395459 -0.8910065241883683 0
    outer loop
      vertex 1.4902275204777535 3.1668946836310683 1
      vertex 1.4902275204777535 3.1668946836310683 0.625
      vertex 1.686137859356004 3.067073380153522 0.625
    endloop
  endfacet
  facet normal -0.3971478906347828 -0.9177546256839803 0
    outer loop
      vertex 1.2884359343963743 3.2542177006088795 1
      vertex 1.2884359343963743 3.2542177006088795 0.625
      vertex 1.4902275204777535 3.1668946836310683 0.625
    endloop
  endfacet
  facet normal -0.27899110603922994 -0.9602936856769428 7.250968594095084e-18
    outer loop
      vertex 0.8704146050769905 3.390041063950209 1
      vertex 1.0815594803123159 3.3286978070330373 0.625
      vertex 1.0815594803123159 3.3286978070330373 1
    endloop
  endfacet
  facet normal -0.4539904997395459 -0.8910065241883683 1.8715364520266127e-18
    outer loop
      vertex 1.4902275204777535 3.1668946836310683 1
      vertex 1.686137859356004 3.067073380153522 0.625
      vertex 1.686137859356004 3.067073380153522 1
    endloop
  endfacet
  facet normal -0.3387379202452901 -0.940880768954226 -2.071470263277455e-18
    outer loop
      vertex 1.0815594803123159 3.3286978070330373 1
      vertex 1.2884359343963743 3.2542177006088795 0.625
      vertex 1.2884359343963743 3.2542177006088795 1
    endloop
  endfacet
  facet normal -0.3971478906347828 -0.9177546256839803 3.441637587321676e-18
    outer loop
      vertex 1.2884359343963743 3.2542177006088795 1
      vertex 1.4902275204777535 3.1668946836310683 0.625
      vertex 1.4902275204777535 3.1668946836310683 1
    endloop
  endfacet
  facet normal -0.2181432413965416 -0.9759167619387477 1.7775374180448062e-18
    outer loop
      vertex 0.6558346010500369 3.43800537755041 1
      vertex 0.8704146050769905 3.390041063950209 0.625
      vertex 0.8704146050769905 3.390041063950209 1
    endloop
  endfacet
  facet normal -0.509041415750371 -0.8607420270039439 0
    outer loop
      vertex 1.686137859356004 3.067073380153522 1
      vertex 1.686137859356004 3.067073380153522 0.625
      vertex 1.8753937824264868 2.9551477392570535 0.625
    endloop
  endfacet
  facet normal 0.031410759078128646 -0.9995065603657315 1.0481212517102017e-19
    outer loop
      vertex -0.21976681835259818 3.4930935494989503 0.625
      vertex 0 3.5 0.625
      vertex 0 3.5 2.5
    endloop
  endfacet
  facet normal -0.031410759078128646 -0.9995065603657315 -1.0481212517102017e-19
    outer loop
      vertex 0 3.5 0.625
      vertex 0.21976681835259818 3.4930935494989503 0.625
      vertex 0.21976681835259818 3.4930935494989503 2.5
    endloop
  endfacet
  facet normal -0.15643446504023298 -0.9876883405951374 0
    outer loop
      vertex 0.43866631747506424 3.4724014546006727 0.625
      vertex 0.6558346010500369 3.43800537755041 0.625
      vertex 0.43866631747506424 3.4724014546006727 2.5
    endloop
  endfacet
  facet normal -0.09410831331851316 -0.9955619646030801 -2.592453157455384e-19
    outer loop
      vertex 0.21976681835259818 3.4930935494989503 0.625
      vertex 0.43866631747506424 3.4724014546006727 0.625
      vertex 0.43866631747506424 3.4724014546006727 2.5
    endloop
  endfacet
  facet normal -0.15643446504023167 -0.9876883405951375 1.555586688790945e-16
    outer loop
      vertex 0.6479420812326199 3.439255429884442 1
      vertex 0.43866631747506424 3.4724014546006727 2.5
      vertex 0.6558346010500369 3.43800537755041 0.625
    endloop
  endfacet
  facet normal -0.031410759078128646 -0.9995065603657315 0
    outer loop
      vertex 0 3.5 0.625
      vertex 0.21976681835259818 3.4930935494989503 2.5
      vertex 0 3.5 2.5
    endloop
  endfacet
  facet normal -0.09410831331851316 -0.9955619646030801 0
    outer loop
      vertex 0.21976681835259818 3.4930935494989503 0.625
      vertex 0.43866631747506424 3.4724014546006727 2.5
      vertex 0.21976681835259818 3.4930935494989503 2.5
    endloop
  endfacet
  facet normal -0.15643446504023278 -0.9876883405951374 0
    outer loop
      vertex 0.6479420812326199 3.439255429884442 1
      vertex 0.6479420812326199 3.439255429884442 2.5
      vertex 0.43866631747506424 3.4724014546006727 2.5
    endloop
  endfacet
  facet normal 0 0 1
    outer loop
      vertex -7.25 -6 2.5
      vertex -1.8753937824264884 -2.955147739257052 2.5
      vertex -2.057248383023656 -2.831559480312316 2.5
    endloop
  endfacet
  facet normal 0 0 1
    outer loop
      vertex -7.25 -6 2.5
      vertex -2.057248383023656 -2.831559480312316 2.5
      vertex -2.230983964120414 -2.696796349715263 2.5
    endloop
  endfacet
  facet normal 0 0 1
    outer loop
      vertex -7.25 -6 2.5
      vertex -2.5513901959749408 -2.39591487075041 2.5
      vertex -2.696796349715263 -2.230983964120414 2.5
    endloop
  endfacet
  facet normal 0 0 1
    outer loop
      vertex -7.25 -6 2.5
      vertex -2.696796349715263 -2.230983964120414 2.5
      vertex -2.831559480312316 -2.057248383023656 2.5
    endloop
  endfacet
  facet normal 0 0 1
    outer loop
      vertex -7.25 -6 2.5
      vertex -2.230983964120414 -2.696796349715263 2.5
      vertex -2.39591487075041 -2.5513901959749408 2.5
    endloop
  endfacet
  facet normal 0 0 1
    outer loop
      vertex -7.25 -6 2.5
      vertex -2.39591487075041 -2.5513901959749408 2.5
      vertex -2.5513901959749408 -2.39591487075041 2.5
    endloop
  endfacet
  facet normal 0 0 1
    outer loop
      vertex -7.25 -6 2.5
      vertex -2.831559480312316 -2.057248383023656 2.5
      vertex -2.955147739257052 -1.8753937824264884 2.5
    endloop
  endfacet
  facet normal 0 0 1
    outer loop
      vertex -7.25 -6 2.5
      vertex -2.955147739257052 -1.8753937824264884 2.5
      vertex -3.067073380153522 -1.686137859356004 2.5
    endloop
  endfacet
  facet normal 0 0 1
    outer loop
      vertex -7.25 -6 2.5
      vertex -3.067073380153522 -1.686137859356004 2.5
      vertex -3.1668946836310683 -1.4902275204777535 2.5
    endloop
  endfacet
  facet normal 0 0 1
    outer loop
      vertex -7.25 -6 2.5
      vertex -1.2884359343963725 -3.25421770060888 2.5
      vertex -1.4902275204777544 -3.1668946836310683 2.5
    endloop
  endfacet
  facet normal 0 0 1
    outer loop
      vertex -7.25 -6 2.5
      vertex -0.870414605076992 -3.3900410639502088 2.5
      vertex -1.0815594803123159 -3.3286978070330373 2.5
    endloop
  endfacet
  facet normal 0 0 1
    outer loop
      vertex -7.25 -6 2.5
      vertex -1.0815594803123159 -3.3286978070330373 2.5
      vertex -1.2884359343963725 -3.25421770060888 2.5
    endloop
  endfacet
  facet normal 0 0 1
    outer loop
      vertex -7.25 -6 2.5
      vertex -0.655834601050036 -3.4380053775504105 2.5
      vertex -0.870414605076992 -3.3900410639502088 2.5
    endloop
  endfacet
  facet normal 0 0 1
    outer loop
      vertex -7.25 -6 2.5
      vertex -1.4902275204777544 -3.1668946836310683 2.5
      vertex -1.6861378593560032 -3.0670733801535226 2.5
    endloop
  endfacet
  facet normal 0 0 1
    outer loop
      vertex -7.25 -6 2.5
      vertex -1.6861378593560032 -3.0670733801535226 2.5
      vertex -1.8753937824264884 -2.955147739257052 2.5
    endloop
  endfacet
  facet normal 0 0 1
    outer loop
      vertex -7.25 -6 2.5
      vertex -0.21976681835259648 -3.4930935494989503 2.5
      vertex -0.438666317475065 -3.4724014546006727 2.5
    endloop
  endfacet
  facet normal 0 0 1
    outer loop
      vertex -7.25 -6 2.5
      vertex 0 -3.5 2.5
      vertex -0.21976681835259648 -3.4930935494989503 2.5
    endloop
  endfacet
  facet normal 0 0 1
    outer loop
      vertex -7.25 -6 2.5
      vertex -0.438666317475065 -3.4724014546006727 2.5
      vertex -0.655834601050036 -3.4380053775504105 2.5
    endloop
  endfacet
  facet normal 0 0 1
    outer loop
      vertex -7.25 -6 2.5
      vertex 0.21976681835259648 -3.4930935494989503 2.5
      vertex 0 -3.5 2.5
    endloop
  endfacet
  facet normal 0 0 1
    outer loop
      vertex -7.25 -6 2.5
      vertex 0.438666317475065 -3.4724014546006727 2.5
      vertex 0.21976681835259648 -3.4930935494989503 2.5
    endloop
  endfacet
  facet normal 0 0 1
    outer loop
      vertex -7.25 -6 2.5
      vertex 0.6479420812326258 -3.439255429884441 2.5
      vertex 0.438666317475065 -3.4724014546006727 2.5
    endloop
  endfacet
  facet normal -1 0 0
    outer loop
      vertex -7.25 -6 -2.5
      vertex -7.25 -6 2.5
      vertex -7.25 6 2.5
    endloop
  endfacet
  facet normal 0 0 1
    outer loop
      vertex -7.25 -6 2.5
      vertex -3.25421770060888 -1.2884359343963725 2.5
      vertex -3.3286978070330373 -1.0815594803123159 2.5
    endloop
  endfacet
  facet normal 0 0 1
    outer loop
      vertex -7.25 -6 2.5
      vertex -3.3286978070330373 -1.0815594803123159 2.5
      vertex -3.3900410639502088 -0.870414605076992 2.5
    endloop
  endfacet
  facet normal 0 0 1
    outer loop
      vertex -7.25 -6 2.5
      vertex -3.3900410639502088 -0.870414605076992 2.5
      vertex -3.43800537755041 -0.6558346010500369 2.5
    endloop
  endfacet
  facet normal 0 0 1
    outer loop
      vertex -7.25 -6 2.5
      vertex -3.43800537755041 -0.6558346010500369 2.5
      vertex -3.4724014546006727 -0.43866631747506424 2.5
    endloop
  endfacet
  facet normal 0 0 1
    outer loop
      vertex -7.25 -6 2.5
      vertex -3.1668946836310683 -1.4902275204777535 2.5
      vertex -3.25421770060888 -1.2884359343963725 2.5
    endloop
  endfacet
  facet normal 0 0 1
    outer loop
      vertex -7.25 -6 2.5
      vertex -3.4724014546006727 -0.43866631747506424 2.5
      vertex -3.4930935494989503 -0.21976681835259648 2.5
    endloop
  endfacet
  facet normal 0 0 1
    outer loop
      vertex -7.25 -6 2.5
      vertex -3.4930935494989503 -0.21976681835259648 2.5
      vertex -3.5 0 2.5
    endloop
  endfacet
  facet normal 0 0 1
    outer loop
      vertex -7.25 -6 2.5
      vertex -3.5 0 2.5
      vertex -3.4930935494989503 0.21976681835259648 2.5
    endloop
  endfacet
  facet normal 0 0 1
    outer loop
      vertex -7.25 -6 2.5
      vertex -3.4930935494989503 0.21976681835259648 2.5
      vertex -3.4724014546006727 0.43866631747506424 2.5
    endloop
  endfacet
  facet normal 0 0 1
    outer loop
      vertex -7.25 -6 2.5
      vertex -3.4724014546006727 0.43866631747506424 2.5
      vertex -3.43800537755041 0.6558346010500369 2.5
    endloop
  endfacet
  facet normal 0 0 1
    outer loop
      vertex -7.25 -6 2.5
      vertex -3.43800537755041 0.6558346010500369 2.5
      vertex -3.3900410639502088 0.870414605076992 2.5
    endloop
  endfacet
  facet normal 0 -1 0
    outer loop
      vertex -7.25 -6 -2.5
      vertex 21.25 -6 2.5
      vertex -7.25 -6 2.5
    endloop
  endfacet
  facet normal 0 0 1
    outer loop
      vertex -7.25 -6 2.5
      vertex 21.25 -6 2.5
      vertex 0.6479420812326258 -3.439255429884441 2.5
    endloop
  endfacet
  facet normal -1 0 0
    outer loop
      vertex -7.25 -6 -2.5
      vertex -7.25 6 2.5
      vertex -7.25 6 -2.5
    endloop
  endfacet
  facet normal 0 0 -1
    outer loop
      vertex -7.25 -6 -2.5
      vertex -7.25 6 -2.5
      vertex 21.25 6 -2.5
    endloop
  endfacet
  facet normal 0 1 0
    outer loop
      vertex -7.25 6 -2.5
      vertex -7.25 6 2.5
      vertex 21.25 6 -2.5
    endloop
  endfacet
  facet normal 0 0 1
    outer loop
      vertex -7.25 -6 2.5
      vertex -3.3900410639502088 0.870414605076992 2.5
      vertex -7.25 6 2.5
    endloop
  endfacet
  facet normal 0 0 1
    outer loop
      vertex -7.25 6 2.5
      vertex -3.3900410639502088 0.870414605076992 2.5
      vertex -3.3286978070330373 1.0815594803123159 2.5
    endloop
  endfacet
  facet normal 0 0 1
    outer loop
      vertex -7.25 6 2.5
      vertex -3.3286978070330373 1.0815594803123159 2.5
      vertex -3.25421770060888 1.2884359343963725 2.5
    endloop
  endfacet
  facet normal 0 0 1
    outer loop
      vertex -7.25 6 2.5
      vertex -3.25421770060888 1.2884359343963725 2.5
      vertex -3.1668946836310683 1.4902275204777535 2.5
    endloop
  endfacet
  facet normal 0 0 1
    outer loop
      vertex -7.25 6 2.5
      vertex -3.1668946836310683 1.4902275204777535 2.5
      vertex -3.067073380153522 1.686137859356004 2.5
    endloop
  endfacet
  facet normal 0 0 1
    outer loop
      vertex -7.25 6 2.5
      vertex -3.067073380153522 1.686137859356004 2.5
      vertex -2.955147739257052 1.8753937824264884 2.5
    endloop
  endfacet
  facet normal 0 0 1
    outer loop
      vertex -7.25 6 2.5
      vertex -2.955147739257052 1.8753937824264884 2.5
      vertex -2.831559480312316 2.057248383023656 2.5
    endloop
  endfacet
  facet normal 0 0 1
    outer loop
      vertex -7.25 6 2.5
      vertex -2.831559480312316 2.057248383023656 2.5
      vertex -2.696796349715263 2.230983964120414 2.5
    endloop
  endfacet
  facet normal 0 0 1
    outer loop
      vertex -7.25 6 2.5
      vertex -2.696796349715263 2.230983964120414 2.5
      vertex -2.5513901959749408 2.39591487075041 2.5
    endloop
  endfacet
  facet normal 0 0 1
    outer loop
      vertex -7.25 6 2.5
      vertex -2.5513901959749408 2.39591487075041 2.5
      vertex -2.39591487075041 2.5513901959749408 2.5
    endloop
  endfacet
  facet normal 0 0 1
    outer loop
      vertex -7.25 6 2.5
      vertex -2.39591487075041 2.5513901959749408 2.5
      vertex -2.230983964120414 2.696796349715263 2.5
    endloop
  endfacet
  facet normal 0 0 1
    outer loop
      vertex -7.25 6 2.5
      vertex -2.230983964120414 2.696796349715263 2.5
      vertex -2.057248383023656 2.831559480312316 2.5
    endloop
  endfacet
  facet normal 0 0 1
    outer loop
      vertex -7.25 6 2.5
      vertex -2.057248383023656 2.831559480312316 2.5
      vertex -1.8753937824264884 2.955147739257052 2.5
    endloop
  endfacet
  facet normal 0 0 1
    outer loop
      vertex -7.25 6 2.5
      vertex -1.8753937824264884 2.955147739257052 2.5
      vertex -1.686137859356004 3.067073380153522 2.5
    endloop
  endfacet
  facet normal 0 0 1
    outer loop
      vertex -7.25 6 2.5
      vertex -1.686137859356004 3.067073380153522 2.5
      vertex -1.4902275204777535 3.1668946836310683 2.5
    endloop
  endfacet
  facet normal 0 0 1
    outer loop
      vertex -7.25 6 2.5
      vertex -1.4902275204777535 3.1668946836310683 2.5
      vertex -1.2884359343963725 3.25421770060888 2.5
    endloop
  endfacet
  facet normal 0 0 1
    outer loop
      vertex -7.25 6 2.5
      vertex -1.2884359343963725 3.25421770060888 2.5
      vertex -1.0815594803123159 3.3286978070330373 2.5
    endloop
  endfacet
  facet normal 0 0 1
    outer loop
      vertex -7.25 6 2.5
      vertex -1.0815594803123159 3.3286978070330373 2.5
      vertex -0.870414605076992 3.3900410639502088 2.5
    endloop
  endfacet
  facet normal 0 0 1
    outer loop
      vertex -7.25 6 2.5
      vertex -0.870414605076992 3.3900410639502088 2.5
      vertex -0.6558346010500369 3.43800537755041 2.5
    endloop
  endfacet
  facet normal 0 0 1
    outer loop
      vertex -7.25 6 2.5
      vertex -0.6558346010500369 3.43800537755041 2.5
      vertex -0.43866631747506424 3.4724014546006727 2.5
    endloop
  endfacet
  facet normal 0 0 1
    outer loop
      vertex 0.6479420812326199 3.439255429884442 2.5
      vertex 18 1.8125 2.5
      vertex 0.43866631747506424 3.4724014546006727 2.5
    endloop
  endfacet
  facet normal 0 0 1
    outer loop
      vertex 21.25 6 2.5
      vertex -0.43866631747506424 3.4724014546006727 2.5
      vertex -0.21976681835259818 3.4930935494989503 2.5
    endloop
  endfacet
  facet normal 0 0 1
    outer loop
      vertex -7.25 6 2.5
      vertex -0.43866631747506424 3.4724014546006727 2.5
      vertex 21.25 6 2.5
    endloop
  endfacet
  facet normal 0 -1 0
    outer loop
      vertex -7.25 -6 -2.5
      vertex 21.25 -6 -2.5
      vertex 21.25 -6 2.5
    endloop
  endfacet
  facet normal 0 0 -1
    outer loop
      vertex -7.25 -6 -2.5
      vertex 21.25 6 -2.5
      vertex 21.25 -6 -2.5
    endloop
  endfacet
  facet normal 1 0 0
    outer loop
      vertex 21.25 -6 -2.5
      vertex 21.25 6 -2.5
      vertex 21.25 -6 2.5
    endloop
  endfacet
  facet normal 0 0 1
    outer loop
      vertex 21.25 -6 2.5
      vertex 18 -1.8125 2.5
      vertex 0.6479420812326258 -3.439255429884441 2.5
    endloop
  endfacet
  facet normal 0 0 1
    outer loop
      vertex 21.25 -6 2.5
      vertex 21.25 6 2.5
      vertex 18 -1.8125 2.5
    endloop
  endfacet
  facet normal 0 1 0
    outer loop
      vertex -7.25 6 2.5
      vertex 21.25 6 2.5
      vertex 21.25 6 -2.5
    endloop
  endfacet
  facet normal 0 0 1
    outer loop
      vertex 21.25 6 2.5
      vertex -0.21976681835259818 3.4930935494989503 2.5
      vertex 0 3.5 2.5
    endloop
  endfacet
  facet normal 0 0 1
    outer loop
      vertex 21.25 6 2.5
      vertex 0 3.5 2.5
      vertex 0.21976681835259818 3.4930935494989503 2.5
    endloop
  endfacet
  facet normal 0 0 1
    outer loop
      vertex 21.25 6 2.5
      vertex 0.21976681835259818 3.4930935494989503 2.5
      vertex 0.43866631747506424 3.4724014546006727 2.5
    endloop
  endfacet
  facet normal 0 0 1
    outer loop
      vertex 21.25 6 2.5
      vertex 0.43866631747506424 3.4724014546006727 2.5
      vertex 18 1.8125 2.5
    endloop
  endfacet
  facet normal 1 0 0
    outer loop
      vertex 21.25 -6 2.5
      vertex 21.25 6 -2.5
      vertex 21.25 6 2.5
    endloop
  endfacet
  facet normal 0 0 1
    outer loop
      vertex 21.25 6 2.5
      vertex 18 1.8125 2.5
      vertex 18 -1.8125 2.5
    endloop
  endfacet
endsolid OpenSCAD_Model
